<svg xmlns="http://www.w3.org/2000/svg" xmlns:xlink="http://www.w3.org/1999/xlink" xmlns:lucid="lucid" width="1645.64" height="1472.5"><g transform="translate(-78.5 -228.5)" lucid:page-tab-id="4DtVvksgdsHK"><path d="M1040 1645a5 5 0 0 1 5-5h230a5 5 0 0 1 5 5v30a5 5 0 0 1-5 5h-230a5 5 0 0 1-5-5z" stroke="#000" stroke-opacity="0" stroke-width="2" fill-opacity="0"/><use xlink:href="#a" transform="matrix(1,0,0,1,1044.9999999999998,1645) translate(9.314814814814824 18.166666666666668)"/><use xlink:href="#b" transform="matrix(1,0,0,1,1044.9999999999998,1645) translate(62.64814814814816 18.166666666666668)"/><use xlink:href="#c" transform="matrix(1,0,0,1,1044.9999999999998,1645) translate(92.94444444444446 18.166666666666668)"/><use xlink:href="#d" transform="matrix(1,0,0,1,1044.9999999999998,1645) translate(138.05555555555554 18.166666666666668)"/><use xlink:href="#e" transform="matrix(1,0,0,1,1044.9999999999998,1645) translate(167.64814814814815 18.166666666666668)"/><a xlink:href="https://github.com/devshark/" target="_blank" transform="matrix(1,0,0,1,1044.9999999999998,1645)"><path class="lucid-link lucid-hotspot lucid-overlay-hotspot" fill-opacity="0" d="M167.65 7.5h54.04v16h-54.05z"/></a><path d="M166.76 351v5m0 4.97v9.98m0 4.98v9.98m0 5v9.97m0 5v9.96m0 5v9.96m0 4.98v9.97m0 5v9.96m0 5v9.97m0 5v9.96m0 5v9.96m0 4.98v9.97m0 5v9.96m0 5v9.97m0 5v9.96m0 5v9.97m0 4.98v9.98m0 4.98v9.98m0 4.98v9.98m0 4.98v9.98m0 4.98v9.98m0 4.98v9.98m0 5v9.96m0 5v9.96m0 5v9.96m0 5V730m0 5v9.96m0 5v9.96m0 5v9.96m0 5v9.96m0 5v9.96m0 5v9.96m0 5v9.96m0 5v9.96m0 5v9.97m0 4.98v9.98m0 5v9.97m0 4.98v9.98m0 4.98v10m0 4.97v9.98m0 4.98v9.98m0 5v9.97m0 5v9.96m0 5v9.96m0 4.98v9.97m0 5v9.96m0 5v9.97m0 5v9.96m0 5v9.96m0 4.98v9.97m0 5v9.96m0 5v9.97m0 5v9.96m0 5v9.96m0 4.98v9.97m0 5v9.97m0 4.98v9.98m0 4.98v9.98m0 4.98v9.98m0 4.98v9.98m0 4.98v9.98m0 5v9.96m0 5v9.96m0 5v9.96m0 5v9.96m0 5v9.96m0 5v9.96m0 5v9.96m0 5v9.96m0 5v9.96m0 5v9.96m0 5v9.96m0 5v9.96m0 5v9.96m0 5v9.97m0 4.98v9.98m0 4.98v5" stroke="#3a414a" fill="none"/><path d="M167.24 351h-.95v-.5h.94zM167.24 1488.5h-.95v-.5h.94z" stroke="#3a414a" stroke-width=".05" fill="#3a414a"/><path d="M1056.25 351v5m0 4.97v9.98m0 4.98v9.98m0 5v9.97m0 5v9.96m0 5v9.96m0 4.98v9.97m0 5v9.96m0 5v9.97m0 5v9.96m0 5v9.96m0 4.98v9.97m0 5v9.96m0 5v9.97m0 5v9.96m0 5v9.97m0 4.98v9.98m0 4.98v9.98m0 4.98v9.98m0 4.98v9.98m0 4.98v9.98m0 4.98v9.98m0 5v9.96m0 5v9.96m0 5v9.96m0 5V730m0 5v9.96m0 5v9.96m0 5v9.96m0 5v9.96m0 5v9.96m0 5v9.96m0 5v9.96m0 5v9.96m0 5v9.97m0 4.98v9.98m0 5v9.97m0 4.98v9.98m0 4.98v10m0 4.97v9.98m0 4.98v9.98m0 5v9.97m0 5v9.96m0 5v9.96m0 4.98v9.97m0 5v9.96m0 5v9.97m0 5v9.96m0 5v9.96m0 4.98v9.97m0 5v9.96m0 5v9.97m0 5v9.96m0 5v9.96m0 4.98v9.97m0 5v9.97m0 4.98v9.98m0 4.98v9.98m0 4.98v9.98m0 4.98v9.98m0 4.98v9.98m0 5v9.96m0 5v9.96m0 5v9.96m0 5v9.96m0 5v9.96m0 5v9.96m0 5v9.96m0 5v9.96m0 5v9.96m0 5v9.96m0 5v9.96m0 5v9.96m0 5v9.96m0 5v9.97m0 4.98v9.98m0 4.98v5" stroke="#3a414a" fill="none"/><path d="M1056.73 351h-.95v-.5h.95zM1056.73 1488.5h-.95v-.5h.95z" stroke="#3a414a" stroke-width=".05" fill="#3a414a"/><path d="M1376.74 351v5m0 4.97v9.98m0 4.98v9.98m0 5v9.97m0 5v9.96m0 5v9.96m0 4.98v9.97m0 5v9.96m0 5v9.97m0 5v9.96m0 5v9.96m0 4.98v9.97m0 5v9.96m0 5v9.97m0 5v9.96m0 5v9.97m0 4.98v9.98m0 4.98v9.98m0 4.98v9.98m0 4.98v9.98m0 4.98v9.98m0 4.98v9.98m0 5v9.96m0 5v9.96m0 5v9.96m0 5V730m0 5v9.96m0 5v9.96m0 5v9.96m0 5v9.96m0 5v9.96m0 5v9.96m0 5v9.96m0 5v9.96m0 5v9.97m0 4.98v9.98m0 5v9.97m0 4.98v9.98m0 4.98v10m0 4.97v9.98m0 4.98v9.98m0 5v9.97m0 5v9.96m0 5v9.96m0 4.98v9.97m0 5v9.96m0 5v9.97m0 5v9.96m0 5v9.96m0 4.98v9.97m0 5v9.96m0 5v9.97m0 5v9.96m0 5v9.96m0 4.98v9.97m0 5v9.97m0 4.98v9.98m0 4.98v9.98m0 4.98v9.98m0 4.98v9.98m0 4.98v9.98m0 5v9.96m0 5v9.96m0 5v9.96m0 5v9.96m0 5v9.96m0 5v9.96m0 5v9.96m0 5v9.96m0 5v9.96m0 5v9.96m0 5v9.96m0 5v9.96m0 5v9.96m0 5v9.97m0 4.98v9.98m0 4.98v5" stroke="#3a414a" fill="none"/><path d="M1377.22 351h-.95v-.5h.95zM1377.22 1488.5h-.95v-.5h.95z" stroke="#3a414a" stroke-width=".05" fill="#3a414a"/><path d="M428.7 351v5m0 4.97v9.98m0 4.98v9.98m0 5v9.97m0 5v9.96m0 5v9.96m0 4.98v9.97m0 5v9.96m0 5v9.97m0 5v9.96m0 5v9.96m0 4.98v9.97m0 5v9.96m0 5v9.97m0 5v9.96m0 5v9.97m0 4.98v9.98m0 4.98v9.98m0 4.98v9.98m0 4.98v9.98m0 4.98v9.98m0 4.98v9.98m0 5v9.96m0 5v9.96m0 5v9.96m0 5V730m0 5v9.96m0 5v9.96m0 5v9.96m0 5v9.96m0 5v9.96m0 5v9.96m0 5v9.96m0 5v9.96m0 5v9.97m0 4.98v9.98m0 5v9.97m0 4.98v9.98m0 4.98v10m0 4.97v9.98m0 4.98v9.98m0 5v9.97m0 5v9.96m0 5v9.96m0 4.98v9.97m0 5v9.96m0 5v9.97m0 5v9.96m0 5v9.96m0 4.98v9.97m0 5v9.96m0 5v9.97m0 5v9.96m0 5v9.96m0 4.98v9.97m0 5v9.97m0 4.98v9.98m0 4.98v9.98m0 4.98v9.98m0 4.98v9.98m0 4.98v9.98m0 5v9.96m0 5v9.96m0 5v9.96m0 5v9.96m0 5v9.96m0 5v9.96m0 5v9.96m0 5v9.96m0 5v9.96m0 5v9.96m0 5v9.96m0 5v9.96m0 5v9.96m0 5v9.97m0 4.98v9.98m0 4.98v5" stroke="#3a414a" fill="none"/><path d="M429.18 351h-.95v-.5h.95zM429.18 1488.5h-.95v-.5h.95z" stroke="#3a414a" stroke-width=".05" fill="#3a414a"/><path d="M1643.14 351v5m0 4.97v9.98m0 4.98v9.98m0 5v9.97m0 5v9.96m0 5v9.96m0 4.98v9.97m0 5v9.96m0 5v9.97m0 5v9.96m0 5v9.96m0 4.98v9.97m0 5v9.96m0 5v9.97m0 5v9.96m0 5v9.97m0 4.98v9.98m0 4.98v9.98m0 4.98v9.98m0 4.98v9.98m0 4.98v9.98m0 4.98v9.98m0 5v9.96m0 5v9.96m0 5v9.96m0 5V730m0 5v9.96m0 5v9.96m0 5v9.96m0 5v9.96m0 5v9.96m0 5v9.96m0 5v9.96m0 5v9.96m0 5v9.97m0 4.98v9.98m0 5v9.97m0 4.98v9.98m0 4.98v10m0 4.97v9.98m0 4.98v9.98m0 5v9.97m0 5v9.96m0 5v9.96m0 4.98v9.97m0 5v9.96m0 5v9.97m0 5v9.96m0 5v9.96m0 4.98v9.97m0 5v9.96m0 5v9.97m0 5v9.96m0 5v9.96m0 4.98v9.97m0 5v9.97m0 4.98v9.98m0 4.98v9.98m0 4.98v9.98m0 4.98v9.98m0 4.98v9.98m0 5v9.96m0 5v9.96m0 5v9.96m0 5v9.96m0 5v9.96m0 5v9.96m0 5v9.96m0 5v9.96m0 5v9.96m0 5v9.96m0 5v9.96m0 5v9.96m0 5v9.96m0 5v9.97m0 4.98v9.98m0 4.98v5" stroke="#3a414a" fill="none"/><path d="M1643.62 351h-.95v-.5h.95zM1643.62 1488.5h-.95v-.5h.95z" stroke="#3a414a" stroke-width=".05" fill="#3a414a"/><path d="M99.5 255.5a6 6 0 0 1 6-6h122.53a6 6 0 0 1 6 6v88a6 6 0 0 1-6 6H105.5a6 6 0 0 1-6-6z" stroke="#000" stroke-width="2" fill="#fff"/><use xlink:href="#f" transform="matrix(1,0,0,1,99.5,249.5) translate(19.44944444444444 55.27777777777778)"/><path d="M722.77 351v5m0 4.97v9.98m0 4.98v9.98m0 5v9.97m0 5v9.96m0 5v9.96m0 4.98v9.97m0 5v9.96m0 5v9.97m0 5v9.96m0 5v9.96m0 4.98v9.97m0 5v9.96m0 5v9.97m0 5v9.96m0 5v9.97m0 4.98v9.98m0 4.98v9.98m0 4.98v9.98m0 4.98v9.98m0 4.98v9.98m0 4.98v9.98m0 5v9.96m0 5v9.96m0 5v9.96m0 5V730m0 5v9.96m0 5v9.96m0 5v9.96m0 5v9.96m0 5v9.96m0 5v9.96m0 5v9.96m0 5v9.96m0 5v9.97m0 4.98v9.98m0 5v9.97m0 4.98v9.98m0 4.98v10m0 4.97v9.98m0 4.98v9.98m0 5v9.97m0 5v9.96m0 5v9.96m0 4.98v9.97m0 5v9.96m0 5v9.97m0 5v9.96m0 5v9.96m0 4.98v9.97m0 5v9.96m0 5v9.97m0 5v9.96m0 5v9.96m0 4.98v9.97m0 5v9.97m0 4.98v9.98m0 4.98v9.98m0 4.98v9.98m0 4.98v9.98m0 4.98v9.98m0 5v9.96m0 5v9.96m0 5v9.96m0 5v9.96m0 5v9.96m0 5v9.96m0 5v9.96m0 5v9.96m0 5v9.96m0 5v9.96m0 5v9.96m0 5v9.96m0 5v9.96m0 5v9.97m0 4.98v9.98m0 4.98v5" stroke="#3a414a" fill="none"/><path d="M723.25 351h-.95v-.5h.95zM723.25 1488.5h-.95v-.5h.95z" stroke="#3a414a" stroke-width=".05" fill="#3a414a"/><path d="M99.5 1495.5a6 6 0 0 1 6-6h122.53a6 6 0 0 1 6 6v88a6 6 0 0 1-6 6H105.5a6 6 0 0 1-6-6z" stroke="#000" stroke-width="2" fill="#fff"/><use xlink:href="#f" transform="matrix(1,0,0,1,99.5,1489.5) translate(19.44944444444444 55.27777777777778)"/><path d="M354.03 255.5a6 6 0 0 1 6-6h137.35a6 6 0 0 1 6 6v88a6 6 0 0 1-6 6H360.03a6 6 0 0 1-6-6z" stroke="#000" stroke-width="2" fill="#fff"/><use xlink:href="#g" transform="matrix(1,0,0,1,354.03086419753083,249.5) translate(19.04203703703704 55.27777777777778)"/><use xlink:href="#h" transform="matrix(1,0,0,1,354.03086419753083,249.5) translate(90.4617901234568 55.27777777777778)"/><path d="M354.03 1495.5a6 6 0 0 1 6-6h137.35a6 6 0 0 1 6 6v88a6 6 0 0 1-6 6H360.03a6 6 0 0 1-6-6z" stroke="#000" stroke-width="2" fill="#fff"/><use xlink:href="#g" transform="matrix(1,0,0,1,354.03086419753083,1489.5) translate(19.04203703703704 55.27777777777778)"/><use xlink:href="#h" transform="matrix(1,0,0,1,354.03086419753083,1489.5) translate(90.4617901234568 55.27777777777778)"/><path d="M623.38 255.5a6 6 0 0 1 6-6h186.8a6 6 0 0 1 6 6v88a6 6 0 0 1-6 6h-186.8a6 6 0 0 1-6-6z" stroke="#000" stroke-width="2" fill="#fff"/><use xlink:href="#i" transform="matrix(1,0,0,1,623.3765432098764,249.5) translate(19.319814814814812 55.27777777777778)"/><use xlink:href="#j" transform="matrix(1,0,0,1,623.3765432098764,249.5) translate(105.73956790123457 55.27777777777778)"/><path d="M623.38 1495.5a6 6 0 0 1 6-6h186.8a6 6 0 0 1 6 6v88a6 6 0 0 1-6 6h-186.8a6 6 0 0 1-6-6z" stroke="#000" stroke-width="2" fill="#fff"/><use xlink:href="#i" transform="matrix(1,0,0,1,623.3765432098764,1489.5) translate(19.319814814814812 55.27777777777778)"/><use xlink:href="#j" transform="matrix(1,0,0,1,623.3765432098764,1489.5) translate(105.73956790123457 55.27777777777778)"/><path d="M942.17 255.5a6 6 0 0 1 6-6h216.17a6 6 0 0 1 6 6v88a6 6 0 0 1-6 6H948.17a6 6 0 0 1-6-6z" stroke="#000" stroke-width="2" fill="#fff"/><use xlink:href="#k" transform="matrix(1,0,0,1,942.1666666666665,249.5) translate(19.128456790123444 55.27777777777778)"/><use xlink:href="#j" transform="matrix(1,0,0,1,942.1666666666665,249.5) translate(134.93092592592592 55.27777777777778)"/><path d="M942.17 1495.5a6 6 0 0 1 6-6h216.17a6 6 0 0 1 6 6v88a6 6 0 0 1-6 6H948.17a6 6 0 0 1-6-6z" stroke="#000" stroke-width="2" fill="#fff"/><use xlink:href="#k" transform="matrix(1,0,0,1,942.1666666666665,1489.5) translate(19.128456790123444 55.27777777777778)"/><use xlink:href="#j" transform="matrix(1,0,0,1,942.1666666666665,1489.5) translate(134.93092592592592 55.27777777777778)"/><path d="M1290.34 255.5a6 6 0 0 1 6-6h160.8a6 6 0 0 1 6 6v88a6 6 0 0 1-6 6h-160.8a6 6 0 0 1-6-6z" stroke="#000" stroke-width="2" fill="#fff"/><use xlink:href="#l" transform="matrix(1,0,0,1,1290.3395061728393,249.5) translate(19.313641975308634 55.27777777777778)"/><use xlink:href="#m" transform="matrix(1,0,0,1,1290.3395061728393,249.5) translate(73.51117283950617 55.27777777777778)"/><path d="M1290.34 1495.5a6 6 0 0 1 6-6h160.8a6 6 0 0 1 6 6v88a6 6 0 0 1-6 6h-160.8a6 6 0 0 1-6-6z" stroke="#000" stroke-width="2" fill="#fff"/><use xlink:href="#l" transform="matrix(1,0,0,1,1290.3395061728393,1489.5) translate(19.313641975308634 55.27777777777778)"/><use xlink:href="#m" transform="matrix(1,0,0,1,1290.3395061728393,1489.5) translate(73.51117283950617 55.27777777777778)"/><path d="M1583.14 255.5a6 6 0 0 1 6-6h108a6 6 0 0 1 6 6v88a6 6 0 0 1-6 6h-108a6 6 0 0 1-6-6z" stroke="#000" stroke-width="2" fill="#fff"/><use xlink:href="#n" transform="matrix(1,0,0,1,1583.1419753086418,249.5) translate(31.60993827160494 55.27777777777778)"/><path d="M1583.14 1495.5a6 6 0 0 1 6-6h108a6 6 0 0 1 6 6v88a6 6 0 0 1-6 6h-108a6 6 0 0 1-6-6z" stroke="#000" stroke-width="2" fill="#fff"/><use xlink:href="#n" transform="matrix(1,0,0,1,1583.1419753086418,1489.5) translate(31.60993827160494 55.27777777777778)"/><path d="M702.77 475.5a6 6 0 0 1 6-6h28a6 6 0 0 1 6 6v108a6 6 0 0 1-6 6h-28a6 6 0 0 1-6-6zM702.77 715.5a6 6 0 0 1 6-6h28a6 6 0 0 1 6 6v528a6 6 0 0 1-6 6h-28a6 6 0 0 1-6-6zM1356.74 935.5a6 6 0 0 1 6-6h28a6 6 0 0 1 6 6v48a6 6 0 0 1-6 6h-28a6 6 0 0 1-6-6z" stroke="#000" stroke-width="2" fill="#fff"/><path d="M167.26 410.4h245.06M167.28 410.4h-.52" stroke="#3a414a" fill="none"/><path d="M427.1 410.4l-14.28 4.63v-9.27z" stroke="#3a414a" fill="#3a414a"/><use xlink:href="#o" transform="matrix(1,0,0,1,237.58203875943144,385.06855949200207) translate(0 14.217421742174219)"/><use xlink:href="#p" transform="matrix(1,0,0,1,237.58203875943144,385.06855949200207) translate(54.30265248747098 14.217421742174219)"/><path d="M429.2 470.3l257.73.8M429.22 470.3h-.52" stroke="#3a414a" fill="none"/><path d="M701.7 471.13l-14.28 4.6.03-9.28z" stroke="#3a414a" fill="#3a414a"/><use xlink:href="#q" transform="matrix(1,0,0,1,468.9434687088865,445.3905929139064) translate(0 14.217421742174219)"/><use xlink:href="#r" transform="matrix(1,0,0,1,468.9434687088865,445.3905929139064) translate(66.05177184385106 14.217421742174219)"/><use xlink:href="#s" transform="matrix(1,0,0,1,468.9434687088865,445.3905929139064) translate(94.58534742363126 14.217421742174219)"/><use xlink:href="#t" transform="matrix(1,0,0,1,468.9434687088865,445.3905929139064) translate(136.00346145725686 14.217421742174219)"/><path d="M744.27 529.5l882.5.67" stroke="#3a414a" fill="none"/><path d="M744.3 529.02l-.02.96h-.5V529z" stroke="#3a414a" stroke-width=".05" fill="#3a414a"/><path d="M1641.52 530.18l-14.26 4.63v-9.26z" stroke="#3a414a" fill="#3a414a"/><use xlink:href="#u" transform="matrix(1,0,0,1,997.3854732630459,504.5167951509094) translate(0 14.217421742174219)"/><use xlink:href="#v" transform="matrix(1,0,0,1,997.3854732630459,504.5167951509094) translate(87.67410074340768 14.217421742174219)"/><path d="M702.82 587.87l-5.06.04m-5.05.05l-10.1.08m-5.05.04l-10.1.08m-5.06.04l-10.12.07m-5.05.05l-10.1.08m-5.06.04l-10.1.08m-5.06.04l-10.1.08m-5.05.04l-10.1.08m-5.06.04l-10.12.1m-5.06.03l-10.1.08m-5.06.05l-10.1.08m-5.06.04l-10.1.08m-5.06.04l-10.1.08m-5.06.04l-10.1.08m-5.06.04l-10.1.08m-5.06.04l-10.1.08m-5.06.04l-10.1.1m-5.06.03l-5.05.05" stroke="#3a414a" fill="none"/><path d="M703.1 587.62l.62.72h-.9l-.02-.95h.17z" stroke="#3a414a" stroke-width=".05" fill="#3a414a"/><path d="M430.32 590.07l14.23-4.75.07 9.27z" stroke="#3a414a" fill="#3a414a"/><use xlink:href="#w" transform="matrix(1,0,0,1,552.4565626912603,563.6460647536884) translate(0 14.217421742174219)"/><path d="M428.2 649.97H167.68M428.2 649.97h.5M184.96 639.8l-17.2 10.17 17.2 10.18" stroke="#3a414a" fill="none"/><use xlink:href="#x" transform="matrix(1,0,0,1,149.95730406373966,614.4666995980471) translate(0 14.217421742174219)"/><use xlink:href="#y" transform="matrix(1,0,0,1,149.95730406373966,614.4666995980471) translate(75.9249813870276 14.217421742174219)"/><use xlink:href="#z" transform="matrix(1,0,0,1,149.95730406373966,614.4666995980471) translate(154.21953306441756 14.217421742174219)"/><use xlink:href="#s" transform="matrix(1,0,0,1,149.95730406373966,614.4666995980471) translate(182.75310864419777 14.217421742174219)"/><use xlink:href="#A" transform="matrix(1,0,0,1,149.95730406373966,614.4666995980471) translate(224.17122267782335 14.217421742174219)"/><path d="M743.1 711.67l883.66-1.77" stroke="#3a414a" fill="none"/><path d="M743.13 712.14h-.23l-.46-.76-.17-.2h.85z" stroke="#3a414a" stroke-width=".05" fill="#3a414a"/><path d="M1641.52 709.87l-14.25 4.66-.02-9.26z" stroke="#3a414a" fill="#3a414a"/><use xlink:href="#B" transform="matrix(1,0,0,1,1010.5907147905737,685.4464719920679) translate(0 14.217421742174219)"/><use xlink:href="#v" transform="matrix(1,0,0,1,1010.5907147905737,685.4464719920679) translate(46.30535275749798 14.217421742174219)"/><path d="M743.27 749.5h99.5v40h-83.62" stroke="#3a414a" fill="none"/><path stroke="#3a414a" stroke-width=".05" fill="#3a414a"/><path d="M744.4 789.5l14.25-4.63v9.26z" stroke="#3a414a" fill="#3a414a"/><use xlink:href="#C" transform="matrix(1,0,0,1,850.7716049382714,758.8369336933694) translate(0 14.217421742174219)"/><use xlink:href="#D" transform="matrix(1,0,0,1,850.7716049382714,758.8369336933694) translate(65.1138169372493 14.217421742174219)"/><use xlink:href="#E" transform="matrix(1,0,0,1,850.7716049382714,758.8369336933694) translate(80.86158615861588 14.217421742174219)"/><use xlink:href="#F" transform="matrix(1,0,0,1,850.7716049382714,758.8369336933694) translate(151.70186463090755 14.217421742174219)"/><use xlink:href="#G" transform="matrix(1,0,0,1,850.7716049382714,758.8369336933694) translate(171.44828371726064 14.217421742174219)"/><use xlink:href="#H" transform="matrix(1,0,0,1,850.7716049382714,758.8369336933694) translate(216.81568156815683 14.217421742174219)"/><use xlink:href="#I" transform="matrix(1,0,0,1,850.7716049382714,758.8369336933694) translate(253.24782478247826 14.217421742174219)"/><path d="M682.77 815.5a6 6 0 0 1 6-6h95.78a6 6 0 0 1 6 6v8.22a14.48 14.48 0 0 1-4.25 10.24l-1.5 1.5a14.48 14.48 0 0 1-10.25 4.26h-85.78a6 6 0 0 1-6-6z" fill="#fff"/><path d="M790.55 809.5v20.22l-10 10h-97.78" stroke="#000" stroke-width="2" fill="none"/><path d="M682.77 815.5a6 6 0 0 1 6-6h988.37a6 6 0 0 1 6 6v448a6 6 0 0 1-6 6H688.77a6 6 0 0 1-6-6zM682.77 1169.5h20m15 0h20m15 0h20m15 0h20m15 0h20m15 0h20m15 0h20m15 0h20m15 0h20m15 0h20m15 0h20m15 0h20m15 0h20m15 0h20m15 0h20m15 0h20m15 0h20m15 0h20m15 0h20m15 0h20m15 0h20m15 0h20m15 0h20m15 0h20m15 0h20m15 0h20m15 0h20m15 0h20m15 0h20" stroke="#000" stroke-width="2" fill="none"/><use xlink:href="#J" transform="matrix(1,0,0,1,690.7716049382715,809.5) translate(0 19.054355435543556)"/><use xlink:href="#K" transform="matrix(1,0,0,1,694.7716049382715,847.7174217421742) translate(0 19.054355435543556)"/><use xlink:href="#L" transform="matrix(1,0,0,1,694.7716049382715,847.7174217421742) translate(75.332588814437 19.054355435543556)"/><use xlink:href="#M" transform="matrix(1,0,0,1,694.7716049382715,847.7174217421742) translate(93.05499994443889 19.054355435543556)"/><use xlink:href="#N" transform="matrix(1,0,0,1,694.7716049382715,847.7174217421742) translate(134.4237479303486 19.054355435543556)"/><use xlink:href="#O" transform="matrix(1,0,0,1,694.7716049382715,847.7174217421742) translate(168.9799813314665 19.054355435543556)"/><use xlink:href="#K" transform="matrix(1,0,0,1,694.7716049382715,1177.5) translate(0 19.054355435543556)"/><use xlink:href="#L" transform="matrix(1,0,0,1,694.7716049382715,1177.5) translate(75.332588814437 19.054355435543556)"/><use xlink:href="#P" transform="matrix(1,0,0,1,694.7716049382715,1177.5) translate(93.05499994443889 19.054355435543556)"/><use xlink:href="#M" transform="matrix(1,0,0,1,694.7716049382715,1177.5) translate(122.67462857396852 19.054355435543556)"/><use xlink:href="#Q" transform="matrix(1,0,0,1,694.7716049382715,1177.5) translate(164.04337655987823 19.054355435543556)"/><use xlink:href="#O" transform="matrix(1,0,0,1,694.7716049382715,1177.5) translate(173.91658610305475 19.054355435543556)"/><path d="M743.27 929.5l597.94 1.24" stroke="#3a414a" fill="none"/><path stroke="#3a414a" stroke-width=".05" fill="#3a414a"/><path d="M1355.97 930.77l-14.27 4.6.02-9.26z" stroke="#3a414a" fill="#3a414a"/><g><use xlink:href="#R" transform="matrix(1,0,0,1,928.0739538938677,904.8153637199192) translate(0 14.217421742174219)"/><use xlink:href="#S" transform="matrix(1,0,0,1,928.0739538938677,904.8153637199192) translate(57.11651720727629 14.217421742174219)"/><use xlink:href="#s" transform="matrix(1,0,0,1,928.0739538938677,904.8153637199192) translate(71.9263315220411 14.217421742174219)"/><use xlink:href="#T" transform="matrix(1,0,0,1,928.0739538938677,904.8153637199192) translate(113.34444555566668 14.217421742174219)"/><use xlink:href="#U" transform="matrix(1,0,0,1,928.0739538938677,904.8153637199192) translate(181.27212721272127 14.217421742174219)"/></g><path d="M1357.1 988.22l-4.98.02m-4.98 0l-9.95.04m-4.98.02l-9.95.02m-4.97.02l-9.95.03m-4.98 0l-9.95.04m-4.97.02l-9.95.03m-4.97.02l-9.95.03m-4.98 0l-9.95.04m-4.97 0l-9.95.04m-4.97.02l-9.95.03m-4.97 0l-9.95.04m-4.97 0l-9.94.04m-4.97.03l-9.96.03m-4.98 0l-9.95.04m-4.96 0l-9.95.04m-4.98.02l-9.95.03m-4.98 0l-9.96.03m-4.97 0l-9.95.04m-4.98.02l-9.94.02m-4.98 0l-9.95.04m-4.97 0l-9.95.04m-4.98.02l-9.94.03m-4.98 0l-9.95.04m-4.97 0l-9.95.03m-4.98.02l-9.94.02m-4.98.02l-9.95.02m-4.97 0l-9.95.04m-4.97.02l-9.94.02m-5 .02l-9.94.03m-4.97 0l-9.96.04m-4.98 0l-9.95.03m-4.96.02l-9.95.03m-4.98 0l-9.95.04m-4.98.02l-9.96.02m-4.97.02l-9.95.03m-4.97.02l-9.95.03m-4.98 0l-9.95.04m-4.97 0l-9.95.04m-4.97 0l-9.95.04m-4.98 0l-9.95.04m-4.97.02h-4.98" stroke="#3a414a" fill="none"/><path d="M1357.8 988.45l.27.25h-1v-.95h.12z" stroke="#3a414a" stroke-width=".05" fill="#3a414a"/><path d="M745.4 990l14.24-4.68.03 9.27z" stroke="#3a414a" fill="#3a414a"/><g><use xlink:href="#w" transform="matrix(1,0,0,1,1037.2882912915381,963.7850748994985) translate(0 14.217421742174219)"/></g><path d="M743.27 1029.5h99.5v40h-83.62" stroke="#3a414a" fill="none"/><path stroke="#3a414a" stroke-width=".05" fill="#3a414a"/><path d="M744.4 1069.5l14.25-4.63v9.27z" stroke="#3a414a" fill="#3a414a"/><g><use xlink:href="#V" transform="matrix(1,0,0,1,850.7716049382715,1038.8369336933692) translate(0 14.217421742174219)"/><use xlink:href="#W" transform="matrix(1,0,0,1,850.7716049382715,1038.8369336933692) translate(72.86428642864287 14.217421742174219)"/><use xlink:href="#X" transform="matrix(1,0,0,1,850.7716049382715,1038.8369336933692) translate(143.70456490093454 14.217421742174219)"/></g><path d="M743.27 1149.5l883.5-.4" stroke="#3a414a" fill="none"/><path stroke="#3a414a" stroke-width=".05" fill="#3a414a"/><path d="M1641.52 1149.1l-14.26 4.64v-9.27z" stroke="#3a414a" fill="#3a414a"/><g><use xlink:href="#u" transform="matrix(1,0,0,1,996.0881598636394,1102.646155685202) translate(0 14.217421742174219)"/><use xlink:href="#Y" transform="matrix(1,0,0,1,996.0881598636394,1102.646155685202) translate(87.67410074340768 14.217421742174219)"/><use xlink:href="#Z" transform="matrix(1,0,0,1,996.0881598636394,1102.646155685202) translate(0 35.543554355435546)"/><use xlink:href="#aa" transform="matrix(1,0,0,1,996.0881598636394,1102.646155685202) translate(48.279994666133284 35.543554355435546)"/><use xlink:href="#ab" transform="matrix(1,0,0,1,996.0881598636394,1102.646155685202) translate(63.583469458056925 35.543554355435546)"/></g><path d="M743.1 1247.33l883.66 1.56" stroke="#3a414a" fill="none"/><path d="M743.13 1246.86v.95h-.86l.17-.18.46-.76z" stroke="#3a414a" stroke-width=".05" fill="#3a414a"/><path d="M1641.52 1248.92l-14.27 4.6.02-9.26z" stroke="#3a414a" fill="#3a414a"/><g><use xlink:href="#u" transform="matrix(1,0,0,1,1033.6655994214798,1201.4763415926448) translate(0 14.217421742174219)"/><use xlink:href="#Y" transform="matrix(1,0,0,1,1033.6655994214798,1201.4763415926448) translate(87.67410074340768 14.217421742174219)"/><use xlink:href="#Z" transform="matrix(1,0,0,1,1033.6655994214798,1201.4763415926448) translate(0 35.543554355435546)"/><use xlink:href="#aa" transform="matrix(1,0,0,1,1033.6655994214798,1201.4763415926448) translate(48.279994666133284 35.543554355435546)"/><use xlink:href="#ac" transform="matrix(1,0,0,1,1033.6655994214798,1201.4763415926448) translate(63.583469458056925 35.543554355435546)"/></g><path d="M1056.75 1328.78h570M1056.77 1328.78h-.52" stroke="#3a414a" fill="none"/><path d="M1641.52 1328.78l-14.26 4.64v-9.28z" stroke="#3a414a" fill="#3a414a"/><g><use xlink:href="#B" transform="matrix(1,0,0,1,1212.830163571911,1303.4546051060365) translate(0 14.217421742174219)"/><use xlink:href="#ad" transform="matrix(1,0,0,1,1212.830163571911,1303.4546051060365) translate(46.30535275749798 14.217421742174219)"/></g><path d="M1055.75 1388.67H429.6M1055.74 1388.67h.5M446.9 1378.5l-17.2 10.17 17.2 10.2" stroke="#3a414a" fill="none"/><g><use xlink:href="#ae" transform="matrix(1,0,0,1,575.4977386627564,1363.3493472112998) translate(0 14.217421742174219)"/><use xlink:href="#af" transform="matrix(1,0,0,1,575.4977386627564,1363.3493472112998) translate(72.02506361747287 14.217421742174219)"/><use xlink:href="#ag" transform="matrix(1,0,0,1,575.4977386627564,1363.3493472112998) translate(119.26837128157261 14.217421742174219)"/><use xlink:href="#ah" transform="matrix(1,0,0,1,575.4977386627564,1363.3493472112998) translate(219.62954628796217 14.217421742174219)"/><use xlink:href="#ai" transform="matrix(1,0,0,1,575.4977386627564,1363.3493472112998) translate(255.12373459568184 14.217421742174219)"/></g><path d="M428.2 1448.57H167.68M428.2 1448.57h.5M184.96 1438.4l-17.2 10.17 17.2 10.18" stroke="#3a414a" fill="none"/><g><use xlink:href="#x" transform="matrix(1,0,0,1,188.43813825827021,1423.2440893165628) translate(0 14.217421742174219)"/><use xlink:href="#af" transform="matrix(1,0,0,1,188.43813825827021,1423.2440893165628) translate(75.9249813870276 14.217421742174219)"/><use xlink:href="#aj" transform="matrix(1,0,0,1,188.43813825827021,1423.2440893165628) translate(123.16828905112735 14.217421742174219)"/></g><defs><path fill="#333" d="M205 0l-28-72H64L36 0H1l101-248h38L239 0h-34zm-38-99l-47-123c-12 45-31 82-46 123h93" id="ak"/><path fill="#333" d="M85-194c31 0 48 13 60 33l-1-100h32l1 261h-30c-2-10 0-23-3-31C134-8 116 4 85 4 32 4 16-35 15-94c0-66 23-100 70-100zm9 24c-40 0-46 34-46 75 0 40 6 74 45 74 42 0 51-32 51-76 0-42-9-74-50-73" id="al"/><path fill="#333" d="M141-36C126-15 110 5 73 4 37 3 15-17 15-53c-1-64 63-63 125-63 3-35-9-54-41-54-24 1-41 7-42 31l-33-3c5-37 33-52 76-52 45 0 72 20 72 64v82c-1 20 7 32 28 27v20c-31 9-61-2-59-35zM48-53c0 20 12 33 32 33 41-3 63-29 60-74-43 2-92-5-92 41" id="am"/><path fill="#333" d="M115-194c55 1 70 41 70 98S169 2 115 4C84 4 66-9 55-30l1 105H24l-1-265h31l2 30c10-21 28-34 59-34zm-8 174c40 0 45-34 45-75s-6-73-45-74c-42 0-51 32-51 76 0 43 10 73 51 73" id="an"/><path fill="#333" d="M59-47c-2 24 18 29 38 22v24C64 9 27 4 27-40v-127H5v-23h24l9-43h21v43h35v23H59v120" id="ao"/><path fill="#333" d="M100-194c63 0 86 42 84 106H49c0 40 14 67 53 68 26 1 43-12 49-29l28 8c-11 28-37 45-77 45C44 4 14-33 15-96c1-61 26-98 85-98zm52 81c6-60-76-77-97-28-3 7-6 17-6 28h103" id="ap"/><g id="a"><use transform="matrix(0.03703703703703704,0,0,0.03703703703703704,0,0)" xlink:href="#ak"/><use transform="matrix(0.03703703703703704,0,0,0.03703703703703704,8.88888888888889,0)" xlink:href="#al"/><use transform="matrix(0.03703703703703704,0,0,0.03703703703703704,16.296296296296298,0)" xlink:href="#am"/><use transform="matrix(0.03703703703703704,0,0,0.03703703703703704,23.703703703703706,0)" xlink:href="#an"/><use transform="matrix(0.03703703703703704,0,0,0.03703703703703704,31.111111111111114,0)" xlink:href="#ao"/><use transform="matrix(0.03703703703703704,0,0,0.03703703703703704,34.81481481481482,0)" xlink:href="#ap"/><use transform="matrix(0.03703703703703704,0,0,0.03703703703703704,42.22222222222223,0)" xlink:href="#al"/></g><path fill="#333" d="M101-234c-31-9-42 10-38 44h38v23H63V0H32v-167H5v-23h27c-7-52 17-82 69-68v24" id="aq"/><path fill="#333" d="M114-163C36-179 61-72 57 0H25l-1-190h30c1 12-1 29 2 39 6-27 23-49 58-41v29" id="ar"/><path fill="#333" d="M100-194c62-1 85 37 85 99 1 63-27 99-86 99S16-35 15-95c0-66 28-99 85-99zM99-20c44 1 53-31 53-75 0-43-8-75-51-75s-53 32-53 75 10 74 51 75" id="as"/><path fill="#333" d="M210-169c-67 3-38 105-44 169h-31v-121c0-29-5-50-35-48C34-165 62-65 56 0H25l-1-190h30c1 10-1 24 2 32 10-44 99-50 107 0 11-21 27-35 58-36 85-2 47 119 55 194h-31v-121c0-29-5-49-35-48" id="at"/><g id="b"><use transform="matrix(0.03703703703703704,0,0,0.03703703703703704,0,0)" xlink:href="#aq"/><use transform="matrix(0.03703703703703704,0,0,0.03703703703703704,3.703703703703704,0)" xlink:href="#ar"/><use transform="matrix(0.03703703703703704,0,0,0.03703703703703704,8.111111111111112,0)" xlink:href="#as"/><use transform="matrix(0.03703703703703704,0,0,0.03703703703703704,15.51851851851852,0)" xlink:href="#at"/></g><path fill="#333" d="M143 4C61 4 22-44 18-125c-5-107 100-154 193-111 17 8 29 25 37 43l-32 9c-13-25-37-40-76-40-61 0-88 39-88 99 0 61 29 100 91 101 35 0 62-11 79-27v-45h-74v-28h105v86C228-13 192 4 143 4" id="au"/><path fill="#333" d="M24-231v-30h32v30H24zM24 0v-190h32V0H24" id="av"/><path fill="#333" d="M197 0v-115H63V0H30v-248h33v105h134v-105h34V0h-34" id="aw"/><path fill="#333" d="M84 4C-5 8 30-112 23-190h32v120c0 31 7 50 39 49 72-2 45-101 50-169h31l1 190h-30c-1-10 1-25-2-33-11 22-28 36-60 37" id="ax"/><path fill="#333" d="M115-194c53 0 69 39 70 98 0 66-23 100-70 100C84 3 66-7 56-30L54 0H23l1-261h32v101c10-23 28-34 59-34zm-8 174c40 0 45-34 45-75 0-40-5-75-45-74-42 0-51 32-51 76 0 43 10 73 51 73" id="ay"/><g id="c"><use transform="matrix(0.03703703703703704,0,0,0.03703703703703704,0,0)" xlink:href="#au"/><use transform="matrix(0.03703703703703704,0,0,0.03703703703703704,10.370370370370372,0)" xlink:href="#av"/><use transform="matrix(0.03703703703703704,0,0,0.03703703703703704,13.296296296296298,0)" xlink:href="#ao"/><use transform="matrix(0.03703703703703704,0,0,0.03703703703703704,17,0)" xlink:href="#aw"/><use transform="matrix(0.03703703703703704,0,0,0.03703703703703704,26.592592592592595,0)" xlink:href="#ax"/><use transform="matrix(0.03703703703703704,0,0,0.03703703703703704,34,0)" xlink:href="#ay"/></g><path fill="#333" d="M135-143c-3-34-86-38-87 0 15 53 115 12 119 90S17 21 10-45l28-5c4 36 97 45 98 0-10-56-113-15-118-90-4-57 82-63 122-42 12 7 21 19 24 35" id="az"/><g id="d"><use transform="matrix(0.03703703703703704,0,0,0.03703703703703704,0,0)" xlink:href="#ax"/><use transform="matrix(0.03703703703703704,0,0,0.03703703703703704,7.407407407407408,0)" xlink:href="#az"/><use transform="matrix(0.03703703703703704,0,0,0.03703703703703704,14.074074074074076,0)" xlink:href="#ap"/><use transform="matrix(0.03703703703703704,0,0,0.03703703703703704,21.481481481481485,0)" xlink:href="#ar"/></g><path fill="#333" d="M108 0H70L1-190h34L89-25l56-165h34" id="aA"/><path fill="#333" d="M106-169C34-169 62-67 57 0H25v-261h32l-1 103c12-21 28-36 61-36 89 0 53 116 60 194h-32v-121c2-32-8-49-39-48" id="aB"/><path fill="#333" d="M143 0L79-87 56-68V0H24v-261h32v163l83-92h37l-77 82L181 0h-38" id="aC"/><g id="e"><use transform="matrix(0.03703703703703704,0,0,0.03703703703703704,0,0)" xlink:href="#al"/><use transform="matrix(0.03703703703703704,0,0,0.03703703703703704,7.407407407407408,0)" xlink:href="#ap"/><use transform="matrix(0.03703703703703704,0,0,0.03703703703703704,14.814814814814817,0)" xlink:href="#aA"/><use transform="matrix(0.03703703703703704,0,0,0.03703703703703704,21.481481481481485,0)" xlink:href="#az"/><use transform="matrix(0.03703703703703704,0,0,0.03703703703703704,28.148148148148152,0)" xlink:href="#aB"/><use transform="matrix(0.03703703703703704,0,0,0.03703703703703704,35.55555555555556,0)" xlink:href="#am"/><use transform="matrix(0.03703703703703704,0,0,0.03703703703703704,42.96296296296296,0)" xlink:href="#ar"/><use transform="matrix(0.03703703703703704,0,0,0.03703703703703704,47.37037037037037,0)" xlink:href="#aC"/><path fill="#8080ff" d="M-.67.92H54.7v.98H-.67z"/></g><path fill="#3a414a" d="M212-179c-10-28-35-45-73-45-59 0-87 40-87 99 0 60 29 101 89 101 43 0 62-24 78-52l27 14C228-24 195 4 139 4 59 4 22-46 18-125c-6-104 99-153 187-111 19 9 31 26 39 46" id="aD"/><path fill="#3a414a" d="M84 4C-5 8 30-112 23-190h32v120c0 31 7 50 39 49 72-2 45-101 50-169h31l1 190h-30c-1-10 1-25-2-33-11 22-28 36-60 37" id="aE"/><path fill="#3a414a" d="M135-143c-3-34-86-38-87 0 15 53 115 12 119 90S17 21 10-45l28-5c4 36 97 45 98 0-10-56-113-15-118-90-4-57 82-63 122-42 12 7 21 19 24 35" id="aF"/><path fill="#3a414a" d="M59-47c-2 24 18 29 38 22v24C64 9 27 4 27-40v-127H5v-23h24l9-43h21v43h35v23H59v120" id="aG"/><path fill="#3a414a" d="M100-194c62-1 85 37 85 99 1 63-27 99-86 99S16-35 15-95c0-66 28-99 85-99zM99-20c44 1 53-31 53-75 0-43-8-75-51-75s-53 32-53 75 10 74 51 75" id="aH"/><path fill="#3a414a" d="M210-169c-67 3-38 105-44 169h-31v-121c0-29-5-50-35-48C34-165 62-65 56 0H25l-1-190h30c1 10-1 24 2 32 10-44 99-50 107 0 11-21 27-35 58-36 85-2 47 119 55 194h-31v-121c0-29-5-49-35-48" id="aI"/><path fill="#3a414a" d="M100-194c63 0 86 42 84 106H49c0 40 14 67 53 68 26 1 43-12 49-29l28 8c-11 28-37 45-77 45C44 4 14-33 15-96c1-61 26-98 85-98zm52 81c6-60-76-77-97-28-3 7-6 17-6 28h103" id="aJ"/><path fill="#3a414a" d="M114-163C36-179 61-72 57 0H25l-1-190h30c1 12-1 29 2 39 6-27 23-49 58-41v29" id="aK"/><g id="f"><use transform="matrix(0.06172839506172839,0,0,0.06172839506172839,0,0)" xlink:href="#aD"/><use transform="matrix(0.06172839506172839,0,0,0.06172839506172839,15.987654320987653,0)" xlink:href="#aE"/><use transform="matrix(0.06172839506172839,0,0,0.06172839506172839,28.333333333333332,0)" xlink:href="#aF"/><use transform="matrix(0.06172839506172839,0,0,0.06172839506172839,39.44444444444444,0)" xlink:href="#aG"/><use transform="matrix(0.06172839506172839,0,0,0.06172839506172839,45.617283950617285,0)" xlink:href="#aH"/><use transform="matrix(0.06172839506172839,0,0,0.06172839506172839,57.96296296296296,0)" xlink:href="#aI"/><use transform="matrix(0.06172839506172839,0,0,0.06172839506172839,76.41975308641975,0)" xlink:href="#aJ"/><use transform="matrix(0.06172839506172839,0,0,0.06172839506172839,88.76543209876543,0)" xlink:href="#aK"/></g><path fill="#3a414a" d="M240 0l2-218c-23 76-54 145-80 218h-23L58-218 59 0H30v-248h44l77 211c21-75 51-140 76-211h43V0h-30" id="aL"/><path fill="#3a414a" d="M115-194c53 0 69 39 70 98 0 66-23 100-70 100C84 3 66-7 56-30L54 0H23l1-261h32v101c10-23 28-34 59-34zm-8 174c40 0 45-34 45-75 0-40-5-75-45-74-42 0-51 32-51 76 0 43 10 73 51 73" id="aM"/><path fill="#3a414a" d="M24-231v-30h32v30H24zM24 0v-190h32V0H24" id="aN"/><path fill="#3a414a" d="M24 0v-261h32V0H24" id="aO"/><g id="g"><use transform="matrix(0.06172839506172839,0,0,0.06172839506172839,0,0)" xlink:href="#aL"/><use transform="matrix(0.06172839506172839,0,0,0.06172839506172839,18.456790123456788,0)" xlink:href="#aH"/><use transform="matrix(0.06172839506172839,0,0,0.06172839506172839,30.80246913580247,0)" xlink:href="#aM"/><use transform="matrix(0.06172839506172839,0,0,0.06172839506172839,43.148148148148145,0)" xlink:href="#aN"/><use transform="matrix(0.06172839506172839,0,0,0.06172839506172839,48.02469135802469,0)" xlink:href="#aO"/><use transform="matrix(0.06172839506172839,0,0,0.06172839506172839,52.901234567901234,0)" xlink:href="#aJ"/></g><path fill="#3a414a" d="M205 0l-28-72H64L36 0H1l101-248h38L239 0h-34zm-38-99l-47-123c-12 45-31 82-46 123h93" id="aP"/><path fill="#3a414a" d="M115-194c55 1 70 41 70 98S169 2 115 4C84 4 66-9 55-30l1 105H24l-1-265h31l2 30c10-21 28-34 59-34zm-8 174c40 0 45-34 45-75s-6-73-45-74c-42 0-51 32-51 76 0 43 10 73 51 73" id="aQ"/><g id="h"><use transform="matrix(0.06172839506172839,0,0,0.06172839506172839,0,0)" xlink:href="#aP"/><use transform="matrix(0.06172839506172839,0,0,0.06172839506172839,14.814814814814813,0)" xlink:href="#aQ"/><use transform="matrix(0.06172839506172839,0,0,0.06172839506172839,27.160493827160494,0)" xlink:href="#aQ"/></g><path fill="#3a414a" d="M96-169c-40 0-48 33-48 73s9 75 48 75c24 0 41-14 43-38l32 2c-6 37-31 61-74 61-59 0-76-41-82-99-10-93 101-131 147-64 4 7 5 14 7 22l-32 3c-4-21-16-35-41-35" id="aR"/><path fill="#3a414a" d="M117-194c89-4 53 116 60 194h-32v-121c0-31-8-49-39-48C34-167 62-67 57 0H25l-1-190h30c1 10-1 24 2 32 11-22 29-35 61-36" id="aS"/><g id="i"><use transform="matrix(0.06172839506172839,0,0,0.06172839506172839,0,0)" xlink:href="#aP"/><use transform="matrix(0.06172839506172839,0,0,0.06172839506172839,14.814814814814813,0)" xlink:href="#aR"/><use transform="matrix(0.06172839506172839,0,0,0.06172839506172839,25.925925925925924,0)" xlink:href="#aR"/><use transform="matrix(0.06172839506172839,0,0,0.06172839506172839,37.03703703703704,0)" xlink:href="#aH"/><use transform="matrix(0.06172839506172839,0,0,0.06172839506172839,49.382716049382715,0)" xlink:href="#aE"/><use transform="matrix(0.06172839506172839,0,0,0.06172839506172839,61.72839506172839,0)" xlink:href="#aS"/><use transform="matrix(0.06172839506172839,0,0,0.06172839506172839,74.07407407407408,0)" xlink:href="#aG"/></g><path fill="#3a414a" d="M185-189c-5-48-123-54-124 2 14 75 158 14 163 119 3 78-121 87-175 55-17-10-28-26-33-46l33-7c5 56 141 63 141-1 0-78-155-14-162-118-5-82 145-84 179-34 5 7 8 16 11 25" id="aT"/><path fill="#3a414a" d="M108 0H70L1-190h34L89-25l56-165h34" id="aU"/><g id="j"><use transform="matrix(0.06172839506172839,0,0,0.06172839506172839,0,0)" xlink:href="#aT"/><use transform="matrix(0.06172839506172839,0,0,0.06172839506172839,14.814814814814813,0)" xlink:href="#aJ"/><use transform="matrix(0.06172839506172839,0,0,0.06172839506172839,27.160493827160494,0)" xlink:href="#aK"/><use transform="matrix(0.06172839506172839,0,0,0.06172839506172839,34.50617283950617,0)" xlink:href="#aU"/><use transform="matrix(0.06172839506172839,0,0,0.06172839506172839,45.61728395061728,0)" xlink:href="#aN"/><use transform="matrix(0.06172839506172839,0,0,0.06172839506172839,50.49382716049382,0)" xlink:href="#aR"/><use transform="matrix(0.06172839506172839,0,0,0.06172839506172839,61.60493827160494,0)" xlink:href="#aJ"/></g><path fill="#3a414a" d="M190 0L58-211 59 0H30v-248h39L202-35l-2-213h31V0h-41" id="aV"/><path fill="#3a414a" d="M101-234c-31-9-42 10-38 44h38v23H63V0H32v-167H5v-23h27c-7-52 17-82 69-68v24" id="aW"/><path fill="#3a414a" d="M141-36C126-15 110 5 73 4 37 3 15-17 15-53c-1-64 63-63 125-63 3-35-9-54-41-54-24 1-41 7-42 31l-33-3c5-37 33-52 76-52 45 0 72 20 72 64v82c-1 20 7 32 28 27v20c-31 9-61-2-59-35zM48-53c0 20 12 33 32 33 41-3 63-29 60-74-43 2-92-5-92 41" id="aX"/><g id="k"><use transform="matrix(0.06172839506172839,0,0,0.06172839506172839,0,0)" xlink:href="#aV"/><use transform="matrix(0.06172839506172839,0,0,0.06172839506172839,15.987654320987653,0)" xlink:href="#aH"/><use transform="matrix(0.06172839506172839,0,0,0.06172839506172839,28.333333333333332,0)" xlink:href="#aG"/><use transform="matrix(0.06172839506172839,0,0,0.06172839506172839,34.50617283950617,0)" xlink:href="#aN"/><use transform="matrix(0.06172839506172839,0,0,0.06172839506172839,39.382716049382715,0)" xlink:href="#aW"/><use transform="matrix(0.06172839506172839,0,0,0.06172839506172839,45.55555555555556,0)" xlink:href="#aN"/><use transform="matrix(0.06172839506172839,0,0,0.06172839506172839,50.4320987654321,0)" xlink:href="#aR"/><use transform="matrix(0.06172839506172839,0,0,0.06172839506172839,61.543209876543216,0)" xlink:href="#aX"/><use transform="matrix(0.06172839506172839,0,0,0.06172839506172839,73.8888888888889,0)" xlink:href="#aG"/><use transform="matrix(0.06172839506172839,0,0,0.06172839506172839,80.06172839506173,0)" xlink:href="#aN"/><use transform="matrix(0.06172839506172839,0,0,0.06172839506172839,84.93827160493828,0)" xlink:href="#aH"/><use transform="matrix(0.06172839506172839,0,0,0.06172839506172839,97.28395061728396,0)" xlink:href="#aS"/></g><g id="l"><use transform="matrix(0.06172839506172839,0,0,0.06172839506172839,0,0)" xlink:href="#aD"/><use transform="matrix(0.06172839506172839,0,0,0.06172839506172839,15.987654320987653,0)" xlink:href="#aH"/><use transform="matrix(0.06172839506172839,0,0,0.06172839506172839,28.333333333333332,0)" xlink:href="#aK"/><use transform="matrix(0.06172839506172839,0,0,0.06172839506172839,35.67901234567901,0)" xlink:href="#aJ"/></g><path fill="#3a414a" d="M160-131c35 5 61 23 61 61C221 17 115-2 30 0v-248c76 3 177-17 177 60 0 33-19 50-47 57zm-97-11c50-1 110 9 110-42 0-47-63-36-110-37v79zm0 115c55-2 124 14 124-45 0-56-70-42-124-44v89" id="aY"/><path fill="#3a414a" d="M143 0L79-87 56-68V0H24v-261h32v163l83-92h37l-77 82L181 0h-38" id="aZ"/><path fill="#3a414a" d="M177-190C167-65 218 103 67 71c-23-6-38-20-44-43l32-5c15 47 100 32 89-28v-30C133-14 115 1 83 1 29 1 15-40 15-95c0-56 16-97 71-98 29-1 48 16 59 35 1-10 0-23 2-32h30zM94-22c36 0 50-32 50-73 0-42-14-75-50-75-39 0-46 34-46 75s6 73 46 73" id="ba"/><g id="m"><use transform="matrix(0.06172839506172839,0,0,0.06172839506172839,0,0)" xlink:href="#aY"/><use transform="matrix(0.06172839506172839,0,0,0.06172839506172839,14.814814814814813,0)" xlink:href="#aX"/><use transform="matrix(0.06172839506172839,0,0,0.06172839506172839,27.160493827160494,0)" xlink:href="#aS"/><use transform="matrix(0.06172839506172839,0,0,0.06172839506172839,39.50617283950617,0)" xlink:href="#aZ"/><use transform="matrix(0.06172839506172839,0,0,0.06172839506172839,50.61728395061728,0)" xlink:href="#aN"/><use transform="matrix(0.06172839506172839,0,0,0.06172839506172839,55.49382716049382,0)" xlink:href="#aS"/><use transform="matrix(0.06172839506172839,0,0,0.06172839506172839,67.8395061728395,0)" xlink:href="#ba"/></g><path fill="#3a414a" d="M194 0L95-120 63-95V0H30v-248h33v124l119-124h40L117-140 236 0h-42" id="bb"/><g id="n"><use transform="matrix(0.06172839506172839,0,0,0.06172839506172839,0,0)" xlink:href="#bb"/><use transform="matrix(0.06172839506172839,0,0,0.06172839506172839,14.814814814814813,0)" xlink:href="#aX"/><use transform="matrix(0.06172839506172839,0,0,0.06172839506172839,27.160493827160494,0)" xlink:href="#aW"/><use transform="matrix(0.06172839506172839,0,0,0.06172839506172839,33.333333333333336,0)" xlink:href="#aZ"/><use transform="matrix(0.06172839506172839,0,0,0.06172839506172839,44.44444444444444,0)" xlink:href="#aX"/></g><path fill="#3a414a" d="M190-63c-7 42-38 67-86 67-59 0-84-38-90-98-12-110 154-137 174-36l-49 2c-2-19-15-32-35-32-30 0-35 28-38 64-6 74 65 87 74 30" id="bc"/><path fill="#3a414a" d="M25 0v-261h50V0H25" id="bd"/><path fill="#3a414a" d="M25-224v-37h50v37H25zM25 0v-190h50V0H25" id="be"/><path fill="#3a414a" d="M147 0L96-86 75-71V0H25v-261h50v150l67-79h53l-66 74L201 0h-54" id="bf"/><path fill="#3a414a" d="M137-138c1-29-70-34-71-4 15 46 118 7 119 86 1 83-164 76-172 9l43-7c4 19 20 25 44 25 33 8 57-30 24-41C81-84 22-81 20-136c-2-80 154-74 161-7" id="bg"/><g id="o"><use transform="matrix(0.049366047715882704,0,0,0.049366047715882704,0,0)" xlink:href="#bc"/><use transform="matrix(0.049366047715882704,0,0,0.049366047715882704,9.873209543176541,0)" xlink:href="#bd"/><use transform="matrix(0.049366047715882704,0,0,0.049366047715882704,14.809814314764811,0)" xlink:href="#be"/><use transform="matrix(0.049366047715882704,0,0,0.049366047715882704,19.746419086353082,0)" xlink:href="#bc"/><use transform="matrix(0.049366047715882704,0,0,0.049366047715882704,29.619628629529622,0)" xlink:href="#bf"/><use transform="matrix(0.049366047715882704,0,0,0.049366047715882704,39.492838172706165,0)" xlink:href="#bg"/></g><path fill="#3a414a" d="M142-158h-39l-4-90h48zm-75 0H28l-4-90h48" id="bh"/><path fill="#3a414a" d="M199 0l-22-63H83L61 0H9l90-248h61L250 0h-51zm-33-102l-36-108c-10 38-24 72-36 108h72" id="bi"/><path fill="#3a414a" d="M135-194c53 0 70 44 70 98 0 56-19 98-73 100-31 1-45-17-59-34 3 33 2 69 2 105H25l-1-265h48c2 10 0 23 3 31 11-24 29-35 60-35zM114-30c33 0 39-31 40-66 0-38-9-64-40-64-56 0-55 130 0 130" id="bj"/><path fill="#3a414a" d="M123 10C108 53 80 86 19 72V37c35 8 53-11 59-39L3-190h52l48 148c12-52 28-100 44-148h51" id="bk"/><g id="p"><use transform="matrix(0.049366047715882704,0,0,0.049366047715882704,0,0)" xlink:href="#bh"/><use transform="matrix(0.049366047715882704,0,0,0.049366047715882704,8.39222811170006,0)" xlink:href="#bi"/><use transform="matrix(0.049366047715882704,0,0,0.049366047715882704,21.17803447011368,0)" xlink:href="#bj"/><use transform="matrix(0.049366047715882704,0,0,0.049366047715882704,31.98919891989199,0)" xlink:href="#bj"/><use transform="matrix(0.049366047715882704,0,0,0.049366047715882704,42.8003633696703,0)" xlink:href="#bd"/><use transform="matrix(0.049366047715882704,0,0,0.049366047715882704,47.73696814125857,0)" xlink:href="#bk"/><use transform="matrix(0.049366047715882704,0,0,0.049366047715882704,57.610177684435115,0)" xlink:href="#bh"/></g><path fill="#3a414a" d="M133-34C117-15 103 5 69 4 32 3 11-16 11-54c-1-60 55-63 116-61 1-26-3-47-28-47-18 1-26 9-28 27l-52-2c7-38 36-58 82-57s74 22 75 68l1 82c-1 14 12 18 25 15v27c-30 8-71 5-69-32zm-48 3c29 0 43-24 42-57-32 0-66-3-65 30 0 17 8 27 23 27" id="bl"/><path fill="#3a414a" d="M185-48c-13 30-37 53-82 52C43 2 14-33 14-96s30-98 90-98c62 0 83 45 84 108H66c0 31 8 55 39 56 18 0 30-7 34-22zm-45-69c5-46-57-63-70-21-2 6-4 13-4 21h74" id="bm"/><g id="q"><use transform="matrix(0.049366047715882704,0,0,0.049366047715882704,0,0)" xlink:href="#bl"/><use transform="matrix(0.049366047715882704,0,0,0.049366047715882704,9.873209543176541,0)" xlink:href="#bj"/><use transform="matrix(0.049366047715882704,0,0,0.049366047715882704,20.684373992954853,0)" xlink:href="#bj"/><use transform="matrix(0.049366047715882704,0,0,0.049366047715882704,31.495538442733164,0)" xlink:href="#bd"/><use transform="matrix(0.049366047715882704,0,0,0.049366047715882704,36.432143214321435,0)" xlink:href="#be"/><use transform="matrix(0.049366047715882704,0,0,0.049366047715882704,41.36874798590971,0)" xlink:href="#bm"/><use transform="matrix(0.049366047715882704,0,0,0.049366047715882704,51.24195752908625,0)" xlink:href="#bg"/></g><path fill="#3a414a" d="M121-226c-27-7-43 5-38 36h38v33H83V0H34v-157H6v-33h28c-9-59 32-81 87-68v32" id="bn"/><path fill="#3a414a" d="M110-194c64 0 96 36 96 99 0 64-35 99-97 99-61 0-95-36-95-99 0-62 34-99 96-99zm-1 164c35 0 45-28 45-65 0-40-10-65-43-65-34 0-45 26-45 65 0 36 10 65 43 65" id="bo"/><path fill="#3a414a" d="M135-150c-39-12-60 13-60 57V0H25l-1-190h47c2 13-1 29 3 40 6-28 27-53 61-41v41" id="bp"/><g id="r"><use transform="matrix(0.049366047715882704,0,0,0.049366047715882704,0,0)" xlink:href="#bn"/><use transform="matrix(0.049366047715882704,0,0,0.049366047715882704,5.8745596781900415,0)" xlink:href="#bo"/><use transform="matrix(0.049366047715882704,0,0,0.049366047715882704,16.685724127968353,0)" xlink:href="#bp"/></g><path fill="#3a414a" d="M115-3C79 11 28 4 28-45v-112H4v-33h27l15-45h31v45h36v33H77v99c-1 23 16 31 38 25v30" id="bq"/><path fill="#3a414a" d="M220-157c-53 9-28 100-34 157h-49v-107c1-27-5-49-29-50C55-147 81-57 75 0H25l-1-190h47c2 12-1 28 3 38 10-53 101-56 108 0 13-22 24-43 59-42 82 1 51 116 57 194h-49v-107c-1-25-5-48-29-50" id="br"/><g id="s"><use transform="matrix(0.049366047715882704,0,0,0.049366047715882704,0,0)" xlink:href="#bq"/><use transform="matrix(0.049366047715882704,0,0,0.049366047715882704,5.8745596781900415,0)" xlink:href="#be"/><use transform="matrix(0.049366047715882704,0,0,0.049366047715882704,10.811164449778312,0)" xlink:href="#br"/><use transform="matrix(0.049366047715882704,0,0,0.049366047715882704,26.608299718860778,0)" xlink:href="#bm"/></g><path fill="#3a414a" d="M88-194c31-1 46 15 58 34l-1-101h50l1 261h-48c-2-10 0-23-3-31C134-8 116 4 84 4 32 4 16-41 15-95c0-56 19-97 73-99zm17 164c33 0 40-30 41-66 1-37-9-64-41-64s-38 30-39 65c0 43 13 65 39 65" id="bs"/><g id="t"><use transform="matrix(0.049366047715882704,0,0,0.049366047715882704,0,0)" xlink:href="#bs"/><use transform="matrix(0.049366047715882704,0,0,0.049366047715882704,10.811164449778312,0)" xlink:href="#bm"/><use transform="matrix(0.049366047715882704,0,0,0.049366047715882704,20.684373992954853,0)" xlink:href="#bj"/><use transform="matrix(0.049366047715882704,0,0,0.049366047715882704,31.495538442733164,0)" xlink:href="#bo"/><use transform="matrix(0.049366047715882704,0,0,0.049366047715882704,42.306702892511474,0)" xlink:href="#bg"/><use transform="matrix(0.049366047715882704,0,0,0.049366047715882704,52.17991243568802,0)" xlink:href="#be"/><use transform="matrix(0.049366047715882704,0,0,0.049366047715882704,57.11651720727629,0)" xlink:href="#bq"/></g><path fill="#3a414a" d="M85 4C-2 5 27-109 22-190h50c7 57-23 150 33 157 60-5 35-97 40-157h50l1 190h-47c-2-12 1-28-3-38-12 25-28 42-61 42" id="bt"/><path fill="#3a414a" d="M135-194c52 0 70 43 70 98 0 56-19 99-73 100-30 1-46-15-58-35L72 0H24l1-261h50v104c11-23 29-37 60-37zM114-30c31 0 40-27 40-66 0-37-7-63-39-63s-41 28-41 65c0 36 8 64 40 64" id="bu"/><path fill="#3a414a" d="M114-157C55-157 80-60 75 0H25v-261h50l-1 109c12-26 28-41 61-42 86-1 58 113 63 194h-50c-7-57 23-157-34-157" id="bv"/><g id="u"><use transform="matrix(0.049366047715882704,0,0,0.049366047715882704,0,0)" xlink:href="#bj"/><use transform="matrix(0.049366047715882704,0,0,0.049366047715882704,10.811164449778312,0)" xlink:href="#bt"/><use transform="matrix(0.049366047715882704,0,0,0.049366047715882704,21.622328899556624,0)" xlink:href="#bu"/><use transform="matrix(0.049366047715882704,0,0,0.049366047715882704,32.43349334933494,0)" xlink:href="#bd"/><use transform="matrix(0.049366047715882704,0,0,0.049366047715882704,37.37009812092321,0)" xlink:href="#be"/><use transform="matrix(0.049366047715882704,0,0,0.049366047715882704,42.30670289251148,0)" xlink:href="#bg"/><use transform="matrix(0.049366047715882704,0,0,0.049366047715882704,52.17991243568803,0)" xlink:href="#bv"/><use transform="matrix(0.049366047715882704,0,0,0.049366047715882704,62.99107688546633,0)" xlink:href="#bm"/><use transform="matrix(0.049366047715882704,0,0,0.049366047715882704,72.86428642864287,0)" xlink:href="#bg"/></g><path fill="#3a414a" d="M140-251c80 0 125 45 125 126S219 4 139 4C58 4 15-44 15-125s44-126 125-126zm-1 214c52 0 73-35 73-88 0-50-21-86-72-86-52 0-73 35-73 86s22 88 72 88" id="bw"/><path fill="#3a414a" d="M135-194c87-1 58 113 63 194h-50c-7-57 23-157-34-157-59 0-34 97-39 157H25l-1-190h47c2 12-1 28 3 38 12-26 28-41 61-42" id="bx"/><path fill="#3a414a" d="M136-208V0H84v-208H4v-40h212v40h-80" id="by"/><path fill="#3a414a" d="M24-248c120-7 223 5 221 122C244-46 201 0 124 0H24v-248zM76-40c74 7 117-18 117-86 0-67-45-88-117-82v168" id="bz"/><path fill="#3a414a" d="M67-125c0 53 21 87 73 88 37 1 54-22 65-47l45 17C233-25 199 4 140 4 58 4 20-42 15-125 8-235 124-281 211-232c18 10 29 29 36 50l-46 12c-8-25-30-41-62-41-52 0-71 34-72 86" id="bA"/><g id="v"><use transform="matrix(0.049366047715882704,0,0,0.049366047715882704,0,0)" xlink:href="#bw"/><use transform="matrix(0.049366047715882704,0,0,0.049366047715882704,13.822493360447156,0)" xlink:href="#bj"/><use transform="matrix(0.049366047715882704,0,0,0.049366047715882704,24.63365781022547,0)" xlink:href="#bm"/><use transform="matrix(0.049366047715882704,0,0,0.049366047715882704,34.50686735340201,0)" xlink:href="#bx"/><use transform="matrix(0.049366047715882704,0,0,0.049366047715882704,45.31803180318032,0)" xlink:href="#by"/><use transform="matrix(0.049366047715882704,0,0,0.049366047715882704,55.78363391894745,0)" xlink:href="#be"/><use transform="matrix(0.049366047715882704,0,0,0.049366047715882704,60.72023869053572,0)" xlink:href="#br"/><use transform="matrix(0.049366047715882704,0,0,0.049366047715882704,76.51737395961818,0)" xlink:href="#bm"/><use transform="matrix(0.049366047715882704,0,0,0.049366047715882704,86.39058350279473,0)" xlink:href="#bz"/><use transform="matrix(0.049366047715882704,0,0,0.049366047715882704,99.17638986120835,0)" xlink:href="#bm"/><use transform="matrix(0.049366047715882704,0,0,0.049366047715882704,109.04959940438489,0)" xlink:href="#bj"/><use transform="matrix(0.049366047715882704,0,0,0.049366047715882704,119.86076385416321,0)" xlink:href="#bo"/><use transform="matrix(0.049366047715882704,0,0,0.049366047715882704,130.6719283039415,0)" xlink:href="#bg"/><use transform="matrix(0.049366047715882704,0,0,0.049366047715882704,140.54513784711804,0)" xlink:href="#be"/><use transform="matrix(0.049366047715882704,0,0,0.049366047715882704,145.4817426187063,0)" xlink:href="#bq"/><use transform="matrix(0.049366047715882704,0,0,0.049366047715882704,151.35630229689636,0)" xlink:href="#bi"/><use transform="matrix(0.049366047715882704,0,0,0.049366047715882704,164.14210865530998,0)" xlink:href="#bc"/><use transform="matrix(0.049366047715882704,0,0,0.049366047715882704,174.0153181984865,0)" xlink:href="#bc"/><use transform="matrix(0.049366047715882704,0,0,0.049366047715882704,183.88852774166304,0)" xlink:href="#bo"/><use transform="matrix(0.049366047715882704,0,0,0.049366047715882704,194.69969219144136,0)" xlink:href="#bt"/><use transform="matrix(0.049366047715882704,0,0,0.049366047715882704,205.5108566412197,0)" xlink:href="#bx"/><use transform="matrix(0.049366047715882704,0,0,0.049366047715882704,216.32202109099802,0)" xlink:href="#bq"/><use transform="matrix(0.049366047715882704,0,0,0.049366047715882704,222.19658076918805,0)" xlink:href="#bA"/><use transform="matrix(0.049366047715882704,0,0,0.049366047715882704,234.98238712760167,0)" xlink:href="#bo"/><use transform="matrix(0.049366047715882704,0,0,0.049366047715882704,245.79355157738,0)" xlink:href="#br"/><use transform="matrix(0.049366047715882704,0,0,0.049366047715882704,261.59068684646246,0)" xlink:href="#br"/><use transform="matrix(0.049366047715882704,0,0,0.049366047715882704,277.3878221155449,0)" xlink:href="#bl"/><use transform="matrix(0.049366047715882704,0,0,0.049366047715882704,287.26103165872144,0)" xlink:href="#bx"/><use transform="matrix(0.049366047715882704,0,0,0.049366047715882704,298.0721961084997,0)" xlink:href="#bs"/></g><path fill="#3a414a" d="M195 0l-88-114-31 24V0H24v-248h52v113l112-113h60L142-143 257 0h-62" id="bB"/><g id="w"><use transform="matrix(0.049366047715882704,0,0,0.049366047715882704,0,0)" xlink:href="#bw"/><use transform="matrix(0.049366047715882704,0,0,0.049366047715882704,13.822493360447156,0)" xlink:href="#bB"/></g><g id="x"><use transform="matrix(0.049366047715882704,0,0,0.049366047715882704,0,0)" xlink:href="#bs"/><use transform="matrix(0.049366047715882704,0,0,0.049366047715882704,10.811164449778312,0)" xlink:href="#be"/><use transform="matrix(0.049366047715882704,0,0,0.049366047715882704,15.747769221366582,0)" xlink:href="#bg"/><use transform="matrix(0.049366047715882704,0,0,0.049366047715882704,25.620978764543125,0)" xlink:href="#bj"/><use transform="matrix(0.049366047715882704,0,0,0.049366047715882704,36.432143214321435,0)" xlink:href="#bd"/><use transform="matrix(0.049366047715882704,0,0,0.049366047715882704,41.36874798590971,0)" xlink:href="#bl"/><use transform="matrix(0.049366047715882704,0,0,0.049366047715882704,51.24195752908625,0)" xlink:href="#bk"/><use transform="matrix(0.049366047715882704,0,0,0.049366047715882704,61.1151670722628,0)" xlink:href="#bg"/></g><g id="y"><use transform="matrix(0.049366047715882704,0,0,0.049366047715882704,0,0)" xlink:href="#bh"/><use transform="matrix(0.049366047715882704,0,0,0.049366047715882704,8.39222811170006,0)" xlink:href="#bi"/><use transform="matrix(0.049366047715882704,0,0,0.049366047715882704,21.17803447011368,0)" xlink:href="#bj"/><use transform="matrix(0.049366047715882704,0,0,0.049366047715882704,31.98919891989199,0)" xlink:href="#bj"/><use transform="matrix(0.049366047715882704,0,0,0.049366047715882704,42.8003633696703,0)" xlink:href="#bd"/><use transform="matrix(0.049366047715882704,0,0,0.049366047715882704,47.73696814125857,0)" xlink:href="#be"/><use transform="matrix(0.049366047715882704,0,0,0.049366047715882704,52.67357291284684,0)" xlink:href="#bm"/><use transform="matrix(0.049366047715882704,0,0,0.049366047715882704,62.54678245602339,0)" xlink:href="#bs"/></g><g id="z"><use transform="matrix(0.049366047715882704,0,0,0.049366047715882704,0,0)" xlink:href="#bn"/><use transform="matrix(0.049366047715882704,0,0,0.049366047715882704,5.8745596781900415,0)" xlink:href="#bo"/><use transform="matrix(0.049366047715882704,0,0,0.049366047715882704,16.685724127968353,0)" xlink:href="#bp"/></g><g id="A"><use transform="matrix(0.049366047715882704,0,0,0.049366047715882704,0,0)" xlink:href="#bs"/><use transform="matrix(0.049366047715882704,0,0,0.049366047715882704,10.811164449778312,0)" xlink:href="#bm"/><use transform="matrix(0.049366047715882704,0,0,0.049366047715882704,20.684373992954853,0)" xlink:href="#bj"/><use transform="matrix(0.049366047715882704,0,0,0.049366047715882704,31.495538442733164,0)" xlink:href="#bo"/><use transform="matrix(0.049366047715882704,0,0,0.049366047715882704,42.306702892511474,0)" xlink:href="#bg"/><use transform="matrix(0.049366047715882704,0,0,0.049366047715882704,52.17991243568802,0)" xlink:href="#be"/><use transform="matrix(0.049366047715882704,0,0,0.049366047715882704,57.11651720727629,0)" xlink:href="#bq"/><use transform="matrix(0.049366047715882704,0,0,0.049366047715882704,62.99107688546633,0)" xlink:href="#bh"/></g><g id="B"><use transform="matrix(0.049366047715882704,0,0,0.049366047715882704,0,0)" xlink:href="#bj"/><use transform="matrix(0.049366047715882704,0,0,0.049366047715882704,10.811164449778312,0)" xlink:href="#bo"/><use transform="matrix(0.049366047715882704,0,0,0.049366047715882704,21.622328899556624,0)" xlink:href="#bd"/><use transform="matrix(0.049366047715882704,0,0,0.049366047715882704,26.558933671144896,0)" xlink:href="#bd"/><use transform="matrix(0.049366047715882704,0,0,0.049366047715882704,31.495538442733164,0)" xlink:href="#bg"/></g><g id="C"><use transform="matrix(0.049366047715882704,0,0,0.049366047715882704,0,0)" xlink:href="#bc"/><use transform="matrix(0.049366047715882704,0,0,0.049366047715882704,9.873209543176541,0)" xlink:href="#bv"/><use transform="matrix(0.049366047715882704,0,0,0.049366047715882704,20.684373992954853,0)" xlink:href="#bm"/><use transform="matrix(0.049366047715882704,0,0,0.049366047715882704,30.5575835361314,0)" xlink:href="#bc"/><use transform="matrix(0.049366047715882704,0,0,0.049366047715882704,40.43079307930794,0)" xlink:href="#bf"/><use transform="matrix(0.049366047715882704,0,0,0.049366047715882704,50.30400262248448,0)" xlink:href="#bg"/></g><g id="D"><use transform="matrix(0.049366047715882704,0,0,0.049366047715882704,0,0)" xlink:href="#be"/><use transform="matrix(0.049366047715882704,0,0,0.049366047715882704,4.936604771588271,0)" xlink:href="#bn"/></g><g id="E"><use transform="matrix(0.049366047715882704,0,0,0.049366047715882704,0,0)" xlink:href="#bj"/><use transform="matrix(0.049366047715882704,0,0,0.049366047715882704,10.811164449778312,0)" xlink:href="#bp"/><use transform="matrix(0.049366047715882704,0,0,0.049366047715882704,17.72241113000189,0)" xlink:href="#bo"/><use transform="matrix(0.049366047715882704,0,0,0.049366047715882704,28.5335755797802,0)" xlink:href="#bs"/><use transform="matrix(0.049366047715882704,0,0,0.049366047715882704,39.344740029558515,0)" xlink:href="#bt"/><use transform="matrix(0.049366047715882704,0,0,0.049366047715882704,50.155904479336826,0)" xlink:href="#bc"/><use transform="matrix(0.049366047715882704,0,0,0.049366047715882704,60.02911402251337,0)" xlink:href="#bq"/></g><g id="F"><use transform="matrix(0.049366047715882704,0,0,0.049366047715882704,0,0)" xlink:href="#be"/><use transform="matrix(0.049366047715882704,0,0,0.049366047715882704,4.936604771588271,0)" xlink:href="#bg"/></g><path fill="#3a414a" d="M128 0H69L1-190h53L99-40l48-150h52" id="bC"/><g id="G"><use transform="matrix(0.049366047715882704,0,0,0.049366047715882704,0,0)" xlink:href="#bC"/><use transform="matrix(0.049366047715882704,0,0,0.049366047715882704,9.873209543176541,0)" xlink:href="#bl"/><use transform="matrix(0.049366047715882704,0,0,0.049366047715882704,19.746419086353082,0)" xlink:href="#bd"/><use transform="matrix(0.049366047715882704,0,0,0.049366047715882704,24.683023857941354,0)" xlink:href="#be"/><use transform="matrix(0.049366047715882704,0,0,0.049366047715882704,29.61962862952963,0)" xlink:href="#bs"/></g><g id="H"><use transform="matrix(0.049366047715882704,0,0,0.049366047715882704,0,0)" xlink:href="#bl"/><use transform="matrix(0.049366047715882704,0,0,0.049366047715882704,9.873209543176541,0)" xlink:href="#bx"/><use transform="matrix(0.049366047715882704,0,0,0.049366047715882704,20.684373992954853,0)" xlink:href="#bs"/></g><g id="I"><use transform="matrix(0.049366047715882704,0,0,0.049366047715882704,0,0)" xlink:href="#bl"/><use transform="matrix(0.049366047715882704,0,0,0.049366047715882704,9.873209543176541,0)" xlink:href="#bC"/><use transform="matrix(0.049366047715882704,0,0,0.049366047715882704,19.746419086353082,0)" xlink:href="#bl"/><use transform="matrix(0.049366047715882704,0,0,0.049366047715882704,29.619628629529622,0)" xlink:href="#be"/><use transform="matrix(0.049366047715882704,0,0,0.049366047715882704,34.55623340111789,0)" xlink:href="#bd"/><use transform="matrix(0.049366047715882704,0,0,0.049366047715882704,39.492838172706165,0)" xlink:href="#bl"/><use transform="matrix(0.049366047715882704,0,0,0.049366047715882704,49.36604771588271,0)" xlink:href="#bu"/><use transform="matrix(0.049366047715882704,0,0,0.049366047715882704,60.17721216566102,0)" xlink:href="#bd"/><use transform="matrix(0.049366047715882704,0,0,0.049366047715882704,65.11381693724928,0)" xlink:href="#bm"/></g><g id="J"><use transform="matrix(0.049366047715882704,0,0,0.049366047715882704,0,0)" xlink:href="#aP"/><use transform="matrix(0.049366047715882704,0,0,0.049366047715882704,11.847851451811849,0)" xlink:href="#aO"/><use transform="matrix(0.049366047715882704,0,0,0.049366047715882704,15.747769221366582,0)" xlink:href="#aG"/><use transform="matrix(0.049366047715882704,0,0,0.049366047715882704,20.684373992954853,0)" xlink:href="#aJ"/><use transform="matrix(0.049366047715882704,0,0,0.049366047715882704,30.5575835361314,0)" xlink:href="#aK"/><use transform="matrix(0.049366047715882704,0,0,0.049366047715882704,36.432143214321435,0)" xlink:href="#aS"/><use transform="matrix(0.049366047715882704,0,0,0.049366047715882704,46.30535275749798,0)" xlink:href="#aX"/><use transform="matrix(0.049366047715882704,0,0,0.049366047715882704,56.178562300674514,0)" xlink:href="#aG"/><use transform="matrix(0.049366047715882704,0,0,0.049366047715882704,61.1151670722628,0)" xlink:href="#aN"/><use transform="matrix(0.049366047715882704,0,0,0.049366047715882704,65.01508484181753,0)" xlink:href="#aU"/><use transform="matrix(0.049366047715882704,0,0,0.049366047715882704,73.90097343067642,0)" xlink:href="#aJ"/></g><path fill="#3a414a" d="M26 75v-336h71v23H56V52h41v23H26" id="bD"/><path fill="#3a414a" d="M109-170H84l-4-78h32zm-65 0H19l-4-78h33" id="bE"/><path fill="#3a414a" d="M85-194c31 0 48 13 60 33l-1-100h32l1 261h-30c-2-10 0-23-3-31C134-8 116 4 85 4 32 4 16-35 15-94c0-66 23-100 70-100zm9 24c-40 0-46 34-46 75 0 40 6 74 45 74 42 0 51-32 51-76 0-42-9-74-50-73" id="bF"/><g id="K"><use transform="matrix(0.049366047715882704,0,0,0.049366047715882704,0,0)" xlink:href="#bD"/><use transform="matrix(0.049366047715882704,0,0,0.049366047715882704,4.936604771588271,0)" xlink:href="#bE"/><use transform="matrix(0.049366047715882704,0,0,0.049366047715882704,11.206092831505373,0)" xlink:href="#aQ"/><use transform="matrix(0.049366047715882704,0,0,0.049366047715882704,21.079302374681916,0)" xlink:href="#aK"/><use transform="matrix(0.049366047715882704,0,0,0.049366047715882704,26.953862052871955,0)" xlink:href="#aH"/><use transform="matrix(0.049366047715882704,0,0,0.049366047715882704,36.8270715960485,0)" xlink:href="#bF"/><use transform="matrix(0.049366047715882704,0,0,0.049366047715882704,46.70028113922504,0)" xlink:href="#aE"/><use transform="matrix(0.049366047715882704,0,0,0.049366047715882704,56.57349068240158,0)" xlink:href="#aR"/><use transform="matrix(0.049366047715882704,0,0,0.049366047715882704,65.45937927126047,0)" xlink:href="#aG"/></g><g id="L"><use transform="matrix(0.049366047715882704,0,0,0.049366047715882704,0,0)" xlink:href="#aN"/><use transform="matrix(0.049366047715882704,0,0,0.049366047715882704,3.8999177695547336,0)" xlink:href="#aF"/></g><g id="M"><use transform="matrix(0.049366047715882704,0,0,0.049366047715882704,0,0)" xlink:href="#aU"/><use transform="matrix(0.049366047715882704,0,0,0.049366047715882704,8.885888588858887,0)" xlink:href="#aX"/><use transform="matrix(0.049366047715882704,0,0,0.049366047715882704,18.759098132035426,0)" xlink:href="#aO"/><use transform="matrix(0.049366047715882704,0,0,0.049366047715882704,22.65901590159016,0)" xlink:href="#aN"/><use transform="matrix(0.049366047715882704,0,0,0.049366047715882704,26.558933671144896,0)" xlink:href="#bF"/></g><g id="N"><use transform="matrix(0.049366047715882704,0,0,0.049366047715882704,0,0)" xlink:href="#aX"/><use transform="matrix(0.049366047715882704,0,0,0.049366047715882704,9.873209543176541,0)" xlink:href="#aS"/><use transform="matrix(0.049366047715882704,0,0,0.049366047715882704,19.746419086353082,0)" xlink:href="#bF"/></g><path fill="#3a414a" d="M3 75V52h41v-290H3v-23h71V75H3" id="bG"/><g id="O"><use transform="matrix(0.049366047715882704,0,0,0.049366047715882704,0,0)" xlink:href="#aX"/><use transform="matrix(0.049366047715882704,0,0,0.049366047715882704,9.873209543176541,0)" xlink:href="#aU"/><use transform="matrix(0.049366047715882704,0,0,0.049366047715882704,18.759098132035426,0)" xlink:href="#aX"/><use transform="matrix(0.049366047715882704,0,0,0.049366047715882704,28.63230767521197,0)" xlink:href="#aN"/><use transform="matrix(0.049366047715882704,0,0,0.049366047715882704,32.5322254447667,0)" xlink:href="#aO"/><use transform="matrix(0.049366047715882704,0,0,0.049366047715882704,36.432143214321435,0)" xlink:href="#aX"/><use transform="matrix(0.049366047715882704,0,0,0.049366047715882704,46.30535275749798,0)" xlink:href="#aM"/><use transform="matrix(0.049366047715882704,0,0,0.049366047715882704,56.178562300674514,0)" xlink:href="#aO"/><use transform="matrix(0.049366047715882704,0,0,0.049366047715882704,60.07848007022925,0)" xlink:href="#aJ"/><use transform="matrix(0.049366047715882704,0,0,0.049366047715882704,69.95168961340579,0)" xlink:href="#bE"/><use transform="matrix(0.049366047715882704,0,0,0.049366047715882704,76.2211776733229,0)" xlink:href="#bG"/></g><g id="P"><use transform="matrix(0.049366047715882704,0,0,0.049366047715882704,0,0)" xlink:href="#aS"/><use transform="matrix(0.049366047715882704,0,0,0.049366047715882704,9.873209543176541,0)" xlink:href="#aH"/><use transform="matrix(0.049366047715882704,0,0,0.049366047715882704,19.746419086353082,0)" xlink:href="#aG"/></g><path fill="#3a414a" d="M0 4l72-265h28L28 4H0" id="bH"/><use transform="matrix(0.049366047715882704,0,0,0.049366047715882704,0,0)" xlink:href="#bH" id="Q"/><g id="R"><use transform="matrix(0.049366047715882704,0,0,0.049366047715882704,0,0)" xlink:href="#bo"/><use transform="matrix(0.049366047715882704,0,0,0.049366047715882704,10.811164449778312,0)" xlink:href="#bj"/><use transform="matrix(0.049366047715882704,0,0,0.049366047715882704,21.622328899556624,0)" xlink:href="#bm"/><use transform="matrix(0.049366047715882704,0,0,0.049366047715882704,31.495538442733164,0)" xlink:href="#bx"/><use transform="matrix(0.049366047715882704,0,0,0.049366047715882704,42.306702892511474,0)" xlink:href="#bg"/></g><use transform="matrix(0.049366047715882704,0,0,0.049366047715882704,0,0)" xlink:href="#bl" id="S"/><g id="T"><use transform="matrix(0.049366047715882704,0,0,0.049366047715882704,0,0)" xlink:href="#bs"/><use transform="matrix(0.049366047715882704,0,0,0.049366047715882704,10.811164449778312,0)" xlink:href="#bm"/><use transform="matrix(0.049366047715882704,0,0,0.049366047715882704,20.684373992954853,0)" xlink:href="#bj"/><use transform="matrix(0.049366047715882704,0,0,0.049366047715882704,31.495538442733164,0)" xlink:href="#bo"/><use transform="matrix(0.049366047715882704,0,0,0.049366047715882704,42.306702892511474,0)" xlink:href="#bg"/><use transform="matrix(0.049366047715882704,0,0,0.049366047715882704,52.17991243568802,0)" xlink:href="#be"/><use transform="matrix(0.049366047715882704,0,0,0.049366047715882704,57.11651720727629,0)" xlink:href="#bq"/></g><g id="U"><use transform="matrix(0.049366047715882704,0,0,0.049366047715882704,0,0)" xlink:href="#bl"/><use transform="matrix(0.049366047715882704,0,0,0.049366047715882704,9.873209543176541,0)" xlink:href="#bc"/><use transform="matrix(0.049366047715882704,0,0,0.049366047715882704,19.746419086353082,0)" xlink:href="#bc"/><use transform="matrix(0.049366047715882704,0,0,0.049366047715882704,29.619628629529622,0)" xlink:href="#bo"/><use transform="matrix(0.049366047715882704,0,0,0.049366047715882704,40.43079307930793,0)" xlink:href="#bt"/><use transform="matrix(0.049366047715882704,0,0,0.049366047715882704,51.24195752908625,0)" xlink:href="#bx"/><use transform="matrix(0.049366047715882704,0,0,0.049366047715882704,62.05312197886456,0)" xlink:href="#bq"/></g><g id="V"><use transform="matrix(0.049366047715882704,0,0,0.049366047715882704,0,0)" xlink:href="#bt"/><use transform="matrix(0.049366047715882704,0,0,0.049366047715882704,10.811164449778312,0)" xlink:href="#bj"/><use transform="matrix(0.049366047715882704,0,0,0.049366047715882704,21.622328899556624,0)" xlink:href="#bs"/><use transform="matrix(0.049366047715882704,0,0,0.049366047715882704,32.43349334933494,0)" xlink:href="#bl"/><use transform="matrix(0.049366047715882704,0,0,0.049366047715882704,42.30670289251148,0)" xlink:href="#bq"/><use transform="matrix(0.049366047715882704,0,0,0.049366047715882704,48.18126257070152,0)" xlink:href="#bm"/><use transform="matrix(0.049366047715882704,0,0,0.049366047715882704,58.054472113878056,0)" xlink:href="#bg"/></g><g id="W"><use transform="matrix(0.049366047715882704,0,0,0.049366047715882704,0,0)" xlink:href="#bj"/><use transform="matrix(0.049366047715882704,0,0,0.049366047715882704,10.811164449778312,0)" xlink:href="#bp"/><use transform="matrix(0.049366047715882704,0,0,0.049366047715882704,17.72241113000189,0)" xlink:href="#bo"/><use transform="matrix(0.049366047715882704,0,0,0.049366047715882704,28.5335755797802,0)" xlink:href="#bs"/><use transform="matrix(0.049366047715882704,0,0,0.049366047715882704,39.344740029558515,0)" xlink:href="#bt"/><use transform="matrix(0.049366047715882704,0,0,0.049366047715882704,50.155904479336826,0)" xlink:href="#bc"/><use transform="matrix(0.049366047715882704,0,0,0.049366047715882704,60.02911402251337,0)" xlink:href="#bq"/></g><g id="X"><use transform="matrix(0.049366047715882704,0,0,0.049366047715882704,0,0)" xlink:href="#bl"/><use transform="matrix(0.049366047715882704,0,0,0.049366047715882704,9.873209543176541,0)" xlink:href="#bC"/><use transform="matrix(0.049366047715882704,0,0,0.049366047715882704,19.746419086353082,0)" xlink:href="#bl"/><use transform="matrix(0.049366047715882704,0,0,0.049366047715882704,29.619628629529622,0)" xlink:href="#be"/><use transform="matrix(0.049366047715882704,0,0,0.049366047715882704,34.55623340111789,0)" xlink:href="#bd"/><use transform="matrix(0.049366047715882704,0,0,0.049366047715882704,39.492838172706165,0)" xlink:href="#bl"/><use transform="matrix(0.049366047715882704,0,0,0.049366047715882704,49.36604771588271,0)" xlink:href="#bu"/><use transform="matrix(0.049366047715882704,0,0,0.049366047715882704,60.17721216566102,0)" xlink:href="#be"/><use transform="matrix(0.049366047715882704,0,0,0.049366047715882704,65.11381693724928,0)" xlink:href="#bd"/><use transform="matrix(0.049366047715882704,0,0,0.049366047715882704,70.05042170883755,0)" xlink:href="#be"/><use transform="matrix(0.049366047715882704,0,0,0.049366047715882704,74.98702648042581,0)" xlink:href="#bq"/><use transform="matrix(0.049366047715882704,0,0,0.049366047715882704,80.86158615861585,0)" xlink:href="#bk"/></g><path fill="#3a414a" d="M169-182c-1-43-94-46-97-3 18 66 151 10 154 114 3 95-165 93-204 36-6-8-10-19-12-30l50-8c3 46 112 56 116 5-17-69-150-10-154-114-4-87 153-88 188-35 5 8 8 18 10 28" id="bI"/><path fill="#3a414a" d="M175 0L67-191c6 58 2 128 3 191H24v-248h59L193-55c-6-58-2-129-3-193h46V0h-61" id="bJ"/><g id="Y"><use transform="matrix(0.049366047715882704,0,0,0.049366047715882704,0,0)" xlink:href="#bI"/><use transform="matrix(0.049366047715882704,0,0,0.049366047715882704,11.847851451811849,0)" xlink:href="#bm"/><use transform="matrix(0.049366047715882704,0,0,0.049366047715882704,21.72106099498839,0)" xlink:href="#bx"/><use transform="matrix(0.049366047715882704,0,0,0.049366047715882704,32.5322254447667,0)" xlink:href="#bs"/><use transform="matrix(0.049366047715882704,0,0,0.049366047715882704,43.34338989454501,0)" xlink:href="#bJ"/><use transform="matrix(0.049366047715882704,0,0,0.049366047715882704,56.129196252958636,0)" xlink:href="#bo"/><use transform="matrix(0.049366047715882704,0,0,0.049366047715882704,66.94036070273695,0)" xlink:href="#bq"/><use transform="matrix(0.049366047715882704,0,0,0.049366047715882704,72.81492038092699,0)" xlink:href="#be"/><use transform="matrix(0.049366047715882704,0,0,0.049366047715882704,77.75152515251526,0)" xlink:href="#bn"/><use transform="matrix(0.049366047715882704,0,0,0.049366047715882704,83.6260848307053,0)" xlink:href="#be"/><use transform="matrix(0.049366047715882704,0,0,0.049366047715882704,88.56268960229356,0)" xlink:href="#bc"/><use transform="matrix(0.049366047715882704,0,0,0.049366047715882704,98.4358991454701,0)" xlink:href="#bl"/><use transform="matrix(0.049366047715882704,0,0,0.049366047715882704,108.30910868864665,0)" xlink:href="#bq"/><use transform="matrix(0.049366047715882704,0,0,0.049366047715882704,114.1836683668367,0)" xlink:href="#be"/><use transform="matrix(0.049366047715882704,0,0,0.049366047715882704,119.12027313842493,0)" xlink:href="#bo"/><use transform="matrix(0.049366047715882704,0,0,0.049366047715882704,129.93143758820327,0)" xlink:href="#bx"/><use transform="matrix(0.049366047715882704,0,0,0.049366047715882704,140.74260203798158,0)" xlink:href="#bA"/><use transform="matrix(0.049366047715882704,0,0,0.049366047715882704,153.5284083963952,0)" xlink:href="#bo"/><use transform="matrix(0.049366047715882704,0,0,0.049366047715882704,164.33957284617352,0)" xlink:href="#br"/><use transform="matrix(0.049366047715882704,0,0,0.049366047715882704,180.136708115256,0)" xlink:href="#br"/><use transform="matrix(0.049366047715882704,0,0,0.049366047715882704,195.93384338433847,0)" xlink:href="#bl"/><use transform="matrix(0.049366047715882704,0,0,0.049366047715882704,205.807052927515,0)" xlink:href="#bx"/><use transform="matrix(0.049366047715882704,0,0,0.049366047715882704,216.6182173772933,0)" xlink:href="#bs"/></g><path fill="#3a414a" d="M133 41v34c-50 4-88-6-87-53 0-46 9-101-40-98v-34c48 2 40-52 40-98-1-47 37-57 87-53v34c-79-14-6 124-77 134 73 11-4 147 77 134" id="bK"/><g id="Z"><use transform="matrix(0.049366047715882704,0,0,0.049366047715882704,0,0)" xlink:href="#bK"/><use transform="matrix(0.049366047715882704,0,0,0.049366047715882704,6.911246680223578,0)" xlink:href="#bq"/><use transform="matrix(0.049366047715882704,0,0,0.049366047715882704,12.78580635841362,0)" xlink:href="#bk"/><use transform="matrix(0.049366047715882704,0,0,0.049366047715882704,22.65901590159016,0)" xlink:href="#bj"/><use transform="matrix(0.049366047715882704,0,0,0.049366047715882704,33.47018035136847,0)" xlink:href="#bm"/></g><path fill="#3a414a" d="M15-148v-39h180v39H15zm0 97v-39h180v39H15" id="bL"/><use transform="matrix(0.049366047715882704,0,0,0.049366047715882704,0,0)" xlink:href="#bL" id="aa"/><path fill="#3a414a" d="M62-158H24l-5-90h48" id="bM"/><path fill="#3a414a" d="M24 0v-248h52V0H24" id="bN"/><path fill="#3a414a" d="M230 0l2-204L168 0h-37L68-204 70 0H24v-248h70l56 185 57-185h69V0h-46" id="bO"/><path fill="#3a414a" d="M24 0v-248h195v40H76v63h132v40H76v65h150V0H24" id="bP"/><path fill="#3a414a" d="M-4 44V30h207v14H-4" id="bQ"/><path fill="#3a414a" d="M24-248c93 1 206-16 204 79-1 75-69 88-152 82V0H24v-248zm52 121c47 0 100 7 100-41 0-47-54-39-100-39v80" id="bR"/><path fill="#3a414a" d="M238-95c0 69-44 99-111 99C63 4 22-25 22-93v-155h51v151c-1 38 19 59 55 60 90 1 49-130 58-211h52v153" id="bS"/><path fill="#3a414a" d="M94-36c2 56 4 113-52 111H8V41C85 54 13-83 84-94c-39-5-38-51-36-97 1-27-12-38-40-36v-34c49-4 87 6 86 53s-8 101 41 98v34c-26 1-42 13-41 40" id="bT"/><g id="ab"><use transform="matrix(0.049366047715882704,0,0,0.049366047715882704,0,0)" xlink:href="#bM"/><use transform="matrix(0.049366047715882704,0,0,0.049366047715882704,4.19611405585003,0)" xlink:href="#by"/><use transform="matrix(0.049366047715882704,0,0,0.049366047715882704,15.007278505628342,0)" xlink:href="#bN"/><use transform="matrix(0.049366047715882704,0,0,0.049366047715882704,19.943883277216614,0)" xlink:href="#bO"/><use transform="matrix(0.049366047715882704,0,0,0.049366047715882704,34.70433154426554,0)" xlink:href="#bP"/><use transform="matrix(0.049366047715882704,0,0,0.049366047715882704,46.55218299607739,0)" xlink:href="#bQ"/><use transform="matrix(0.049366047715882704,0,0,0.049366047715882704,56.42539253925393,0)" xlink:href="#bz"/><use transform="matrix(0.049366047715882704,0,0,0.049366047715882704,69.21119889766756,0)" xlink:href="#bP"/><use transform="matrix(0.049366047715882704,0,0,0.049366047715882704,81.0590503494794,0)" xlink:href="#bR"/><use transform="matrix(0.049366047715882704,0,0,0.049366047715882704,92.90690180129126,0)" xlink:href="#bw"/><use transform="matrix(0.049366047715882704,0,0,0.049366047715882704,106.72939516173841,0)" xlink:href="#bI"/><use transform="matrix(0.049366047715882704,0,0,0.049366047715882704,118.57724661355026,0)" xlink:href="#bN"/><use transform="matrix(0.049366047715882704,0,0,0.049366047715882704,123.51385138513852,0)" xlink:href="#by"/><use transform="matrix(0.049366047715882704,0,0,0.049366047715882704,134.32501583491683,0)" xlink:href="#bQ"/><use transform="matrix(0.049366047715882704,0,0,0.049366047715882704,144.19822537809335,0)" xlink:href="#bi"/><use transform="matrix(0.049366047715882704,0,0,0.049366047715882704,156.98403173650698,0)" xlink:href="#bA"/><use transform="matrix(0.049366047715882704,0,0,0.049366047715882704,169.7698380949206,0)" xlink:href="#bA"/><use transform="matrix(0.049366047715882704,0,0,0.049366047715882704,182.55564445333422,0)" xlink:href="#bw"/><use transform="matrix(0.049366047715882704,0,0,0.049366047715882704,196.3781378137814,0)" xlink:href="#bS"/><use transform="matrix(0.049366047715882704,0,0,0.049366047715882704,209.16394417219502,0)" xlink:href="#bJ"/><use transform="matrix(0.049366047715882704,0,0,0.049366047715882704,221.94975053060864,0)" xlink:href="#by"/><use transform="matrix(0.049366047715882704,0,0,0.049366047715882704,232.76091498038696,0)" xlink:href="#bQ"/><use transform="matrix(0.049366047715882704,0,0,0.049366047715882704,242.6341245235635,0)" xlink:href="#bw"/><use transform="matrix(0.049366047715882704,0,0,0.049366047715882704,256.45661788401065,0)" xlink:href="#bR"/><use transform="matrix(0.049366047715882704,0,0,0.049366047715882704,268.3044693358225,0)" xlink:href="#bP"/><use transform="matrix(0.049366047715882704,0,0,0.049366047715882704,280.1523207876343,0)" xlink:href="#bJ"/><use transform="matrix(0.049366047715882704,0,0,0.049366047715882704,292.9381271460479,0)" xlink:href="#bP"/><use transform="matrix(0.049366047715882704,0,0,0.049366047715882704,304.78597859785975,0)" xlink:href="#bz"/><use transform="matrix(0.049366047715882704,0,0,0.049366047715882704,317.57178495627335,0)" xlink:href="#bM"/><use transform="matrix(0.049366047715882704,0,0,0.049366047715882704,321.7678990121234,0)" xlink:href="#bT"/></g><path fill="#3a414a" d="M240-174c0 40-23 61-54 70L253 0h-59l-57-94H76V0H24v-248c93 4 217-23 216 74zM76-134c48-2 112 12 112-38 0-48-66-32-112-35v73" id="bU"/><path fill="#3a414a" d="M147 0H94L2-248h55l64 206c17-72 42-137 63-206h54" id="bV"/><path fill="#3a414a" d="M24 0v-248h52v208h133V0H24" id="bW"/><path fill="#3a414a" d="M182-130c37 4 62 22 62 59C244 23 116-4 24 0v-248c84 5 203-23 205 63 0 31-19 50-47 55zM76-148c40-3 101 13 101-30 0-44-60-28-101-31v61zm0 110c48-3 116 14 116-37 0-48-69-32-116-35v72" id="bX"/><g id="ac"><use transform="matrix(0.049366047715882704,0,0,0.049366047715882704,0,0)" xlink:href="#bM"/><use transform="matrix(0.049366047715882704,0,0,0.049366047715882704,4.19611405585003,0)" xlink:href="#bR"/><use transform="matrix(0.049366047715882704,0,0,0.049366047715882704,16.04396550766188,0)" xlink:href="#bU"/><use transform="matrix(0.049366047715882704,0,0,0.049366047715882704,28.8297718660755,0)" xlink:href="#bw"/><use transform="matrix(0.049366047715882704,0,0,0.049366047715882704,42.65226522652266,0)" xlink:href="#bz"/><use transform="matrix(0.049366047715882704,0,0,0.049366047715882704,55.438071584936274,0)" xlink:href="#bS"/><use transform="matrix(0.049366047715882704,0,0,0.049366047715882704,68.2238779433499,0)" xlink:href="#bA"/><use transform="matrix(0.049366047715882704,0,0,0.049366047715882704,81.00968430176353,0)" xlink:href="#by"/><use transform="matrix(0.049366047715882704,0,0,0.049366047715882704,91.82084875154185,0)" xlink:href="#bQ"/><use transform="matrix(0.049366047715882704,0,0,0.049366047715882704,101.69405829471839,0)" xlink:href="#bJ"/><use transform="matrix(0.049366047715882704,0,0,0.049366047715882704,114.47986465313201,0)" xlink:href="#bw"/><use transform="matrix(0.049366047715882704,0,0,0.049366047715882704,128.30235801357918,0)" xlink:href="#by"/><use transform="matrix(0.049366047715882704,0,0,0.049366047715882704,139.1135224633575,0)" xlink:href="#bQ"/><use transform="matrix(0.049366047715882704,0,0,0.049366047715882704,148.98673200653403,0)" xlink:href="#bi"/><use transform="matrix(0.049366047715882704,0,0,0.049366047715882704,160.4396550766188,0)" xlink:href="#bV"/><use transform="matrix(0.049366047715882704,0,0,0.049366047715882704,170.9546232401018,0)" xlink:href="#bi"/><use transform="matrix(0.049366047715882704,0,0,0.049366047715882704,183.74042959851542,0)" xlink:href="#bN"/><use transform="matrix(0.049366047715882704,0,0,0.049366047715882704,188.67703437010368,0)" xlink:href="#bW"/><use transform="matrix(0.049366047715882704,0,0,0.049366047715882704,199.488198819882,0)" xlink:href="#bi"/><use transform="matrix(0.049366047715882704,0,0,0.049366047715882704,212.27400517829562,0)" xlink:href="#bX"/><use transform="matrix(0.049366047715882704,0,0,0.049366047715882704,225.05981153670925,0)" xlink:href="#bW"/><use transform="matrix(0.049366047715882704,0,0,0.049366047715882704,235.87097598648757,0)" xlink:href="#bP"/><use transform="matrix(0.049366047715882704,0,0,0.049366047715882704,247.7188274382994,0)" xlink:href="#bM"/><use transform="matrix(0.049366047715882704,0,0,0.049366047715882704,251.91494149414945,0)" xlink:href="#bT"/></g><g id="ad"><use transform="matrix(0.049366047715882704,0,0,0.049366047715882704,0,0)" xlink:href="#bI"/><use transform="matrix(0.049366047715882704,0,0,0.049366047715882704,11.847851451811849,0)" xlink:href="#bm"/><use transform="matrix(0.049366047715882704,0,0,0.049366047715882704,21.72106099498839,0)" xlink:href="#bx"/><use transform="matrix(0.049366047715882704,0,0,0.049366047715882704,32.5322254447667,0)" xlink:href="#bs"/><use transform="matrix(0.049366047715882704,0,0,0.049366047715882704,43.34338989454501,0)" xlink:href="#bJ"/><use transform="matrix(0.049366047715882704,0,0,0.049366047715882704,56.129196252958636,0)" xlink:href="#bo"/><use transform="matrix(0.049366047715882704,0,0,0.049366047715882704,66.94036070273695,0)" xlink:href="#bq"/><use transform="matrix(0.049366047715882704,0,0,0.049366047715882704,72.81492038092699,0)" xlink:href="#be"/><use transform="matrix(0.049366047715882704,0,0,0.049366047715882704,77.75152515251526,0)" xlink:href="#bn"/><use transform="matrix(0.049366047715882704,0,0,0.049366047715882704,83.6260848307053,0)" xlink:href="#be"/><use transform="matrix(0.049366047715882704,0,0,0.049366047715882704,88.56268960229356,0)" xlink:href="#bc"/><use transform="matrix(0.049366047715882704,0,0,0.049366047715882704,98.4358991454701,0)" xlink:href="#bl"/><use transform="matrix(0.049366047715882704,0,0,0.049366047715882704,108.30910868864665,0)" xlink:href="#bq"/><use transform="matrix(0.049366047715882704,0,0,0.049366047715882704,114.1836683668367,0)" xlink:href="#be"/><use transform="matrix(0.049366047715882704,0,0,0.049366047715882704,119.12027313842493,0)" xlink:href="#bo"/><use transform="matrix(0.049366047715882704,0,0,0.049366047715882704,129.93143758820327,0)" xlink:href="#bx"/><use transform="matrix(0.049366047715882704,0,0,0.049366047715882704,140.74260203798158,0)" xlink:href="#bA"/><use transform="matrix(0.049366047715882704,0,0,0.049366047715882704,153.5284083963952,0)" xlink:href="#bo"/><use transform="matrix(0.049366047715882704,0,0,0.049366047715882704,164.33957284617352,0)" xlink:href="#br"/><use transform="matrix(0.049366047715882704,0,0,0.049366047715882704,180.136708115256,0)" xlink:href="#br"/><use transform="matrix(0.049366047715882704,0,0,0.049366047715882704,195.93384338433847,0)" xlink:href="#bl"/><use transform="matrix(0.049366047715882704,0,0,0.049366047715882704,205.807052927515,0)" xlink:href="#bx"/><use transform="matrix(0.049366047715882704,0,0,0.049366047715882704,216.6182173772933,0)" xlink:href="#bs"/></g><g id="ae"><use transform="matrix(0.049366047715882704,0,0,0.049366047715882704,0,0)" xlink:href="#bs"/><use transform="matrix(0.049366047715882704,0,0,0.049366047715882704,10.811164449778312,0)" xlink:href="#bm"/><use transform="matrix(0.049366047715882704,0,0,0.049366047715882704,20.684373992954853,0)" xlink:href="#bd"/><use transform="matrix(0.049366047715882704,0,0,0.049366047715882704,25.620978764543125,0)" xlink:href="#be"/><use transform="matrix(0.049366047715882704,0,0,0.049366047715882704,30.5575835361314,0)" xlink:href="#bC"/><use transform="matrix(0.049366047715882704,0,0,0.049366047715882704,40.43079307930794,0)" xlink:href="#bm"/><use transform="matrix(0.049366047715882704,0,0,0.049366047715882704,50.30400262248448,0)" xlink:href="#bp"/><use transform="matrix(0.049366047715882704,0,0,0.049366047715882704,57.21524930270807,0)" xlink:href="#bg"/></g><g id="af"><use transform="matrix(0.049366047715882704,0,0,0.049366047715882704,0,0)" xlink:href="#bj"/><use transform="matrix(0.049366047715882704,0,0,0.049366047715882704,10.811164449778312,0)" xlink:href="#bt"/><use transform="matrix(0.049366047715882704,0,0,0.049366047715882704,21.622328899556624,0)" xlink:href="#bg"/><use transform="matrix(0.049366047715882704,0,0,0.049366047715882704,31.495538442733164,0)" xlink:href="#bv"/></g><g id="ag"><use transform="matrix(0.049366047715882704,0,0,0.049366047715882704,0,0)" xlink:href="#bx"/><use transform="matrix(0.049366047715882704,0,0,0.049366047715882704,10.811164449778312,0)" xlink:href="#bo"/><use transform="matrix(0.049366047715882704,0,0,0.049366047715882704,21.622328899556624,0)" xlink:href="#bq"/><use transform="matrix(0.049366047715882704,0,0,0.049366047715882704,27.496888577746667,0)" xlink:href="#be"/><use transform="matrix(0.049366047715882704,0,0,0.049366047715882704,32.43349334933494,0)" xlink:href="#bn"/><use transform="matrix(0.049366047715882704,0,0,0.049366047715882704,38.30805302752498,0)" xlink:href="#be"/><use transform="matrix(0.049366047715882704,0,0,0.049366047715882704,43.24465779911325,0)" xlink:href="#bc"/><use transform="matrix(0.049366047715882704,0,0,0.049366047715882704,53.11786734228979,0)" xlink:href="#bl"/><use transform="matrix(0.049366047715882704,0,0,0.049366047715882704,62.99107688546633,0)" xlink:href="#bq"/><use transform="matrix(0.049366047715882704,0,0,0.049366047715882704,68.86563656365638,0)" xlink:href="#be"/><use transform="matrix(0.049366047715882704,0,0,0.049366047715882704,73.80224133524464,0)" xlink:href="#bo"/><use transform="matrix(0.049366047715882704,0,0,0.049366047715882704,84.61340578502296,0)" xlink:href="#bx"/></g><path fill="#3a414a" d="M67-93c0 74 22 123 53 168H70C40 30 18-18 18-93s22-123 52-168h50c-32 44-53 94-53 168" id="bY"/><g id="ah"><use transform="matrix(0.049366047715882704,0,0,0.049366047715882704,0,0)" xlink:href="#bY"/><use transform="matrix(0.049366047715882704,0,0,0.049366047715882704,5.8745596781900415,0)" xlink:href="#bC"/><use transform="matrix(0.049366047715882704,0,0,0.049366047715882704,15.747769221366582,0)" xlink:href="#be"/><use transform="matrix(0.049366047715882704,0,0,0.049366047715882704,20.684373992954853,0)" xlink:href="#bl"/></g><path fill="#3a414a" d="M76-208v77h127v40H76V0H24v-248h183v40H76" id="bZ"/><path fill="#3a414a" d="M102-93c0 74-22 123-52 168H0C30 29 54-18 53-93c0-74-22-123-53-168h50c30 45 52 94 52 168" id="ca"/><g id="ai"><use transform="matrix(0.049366047715882704,0,0,0.049366047715882704,0,0)" xlink:href="#bZ"/><use transform="matrix(0.049366047715882704,0,0,0.049366047715882704,10.811164449778312,0)" xlink:href="#be"/><use transform="matrix(0.049366047715882704,0,0,0.049366047715882704,15.747769221366582,0)" xlink:href="#bp"/><use transform="matrix(0.049366047715882704,0,0,0.049366047715882704,22.65901590159016,0)" xlink:href="#bm"/><use transform="matrix(0.049366047715882704,0,0,0.049366047715882704,32.5322254447667,0)" xlink:href="#bu"/><use transform="matrix(0.049366047715882704,0,0,0.049366047715882704,43.34338989454501,0)" xlink:href="#bl"/><use transform="matrix(0.049366047715882704,0,0,0.049366047715882704,53.216599437721555,0)" xlink:href="#bg"/><use transform="matrix(0.049366047715882704,0,0,0.049366047715882704,63.0898089808981,0)" xlink:href="#bm"/><use transform="matrix(0.049366047715882704,0,0,0.049366047715882704,72.96301852407464,0)" xlink:href="#ca"/></g><g id="aj"><use transform="matrix(0.049366047715882704,0,0,0.049366047715882704,0,0)" xlink:href="#bx"/><use transform="matrix(0.049366047715882704,0,0,0.049366047715882704,10.811164449778312,0)" xlink:href="#bo"/><use transform="matrix(0.049366047715882704,0,0,0.049366047715882704,21.622328899556624,0)" xlink:href="#bq"/><use transform="matrix(0.049366047715882704,0,0,0.049366047715882704,27.496888577746667,0)" xlink:href="#be"/><use transform="matrix(0.049366047715882704,0,0,0.049366047715882704,32.43349334933494,0)" xlink:href="#bn"/><use transform="matrix(0.049366047715882704,0,0,0.049366047715882704,38.30805302752498,0)" xlink:href="#be"/><use transform="matrix(0.049366047715882704,0,0,0.049366047715882704,43.24465779911325,0)" xlink:href="#bc"/><use transform="matrix(0.049366047715882704,0,0,0.049366047715882704,53.11786734228979,0)" xlink:href="#bl"/><use transform="matrix(0.049366047715882704,0,0,0.049366047715882704,62.99107688546633,0)" xlink:href="#bq"/><use transform="matrix(0.049366047715882704,0,0,0.049366047715882704,68.86563656365638,0)" xlink:href="#be"/><use transform="matrix(0.049366047715882704,0,0,0.049366047715882704,73.80224133524464,0)" xlink:href="#bo"/><use transform="matrix(0.049366047715882704,0,0,0.049366047715882704,84.61340578502296,0)" xlink:href="#bx"/></g></defs></g></svg>